<?xml version="1.0" encoding="UTF-8"?>
<!-- Created with Inkscape (http://www.inkscape.org/) -->
<svg width="1e3" height="666.67" version="1.1" viewBox="0 0 1e3 666.67" xml:space="preserve" xmlns="http://www.w3.org/2000/svg"><g transform="matrix(1.3333 0 0 -1.3333 0 666.67)" fill="#fefefe"><path d="m440.62 449.73h-175.81v-77.117h126.34c15.888 0 28.745-12.919 28.745-28.848v-42.505c0-15.929-12.857-28.848-28.745-28.848h-126.34v-77.117h175.81c29.481 0 53.355 23.964 53.355 53.493v147.45c0 29.529-23.874 53.493-53.355 53.493z"/><path d="m267.36 150.41h10.762v-68.57h-10.762zm6.5703-58.235h13.254c3.1435 0 5.5791 0.82341 7.2783 2.4418 1.6992 1.6468 2.5771 3.9751 2.5771 7.0416v28.933c0 3.0665-0.87792 5.3948-2.5771 7.0416-1.6992 1.6184-4.1347 2.4418-7.2783 2.4418h-13.254v10.335h13.367c4.3613 0 8.0712-0.76663 11.186-2.2999 3.1152-1.5616 5.4658-3.8047 7.1083-6.7292 1.6142-2.9529 2.4355-6.5021 2.4355-10.676v-29.16c0-4.0887-0.79296-7.6094-2.4072-10.591-1.6142-2.9529-3.9931-5.2244-7.08-6.786-3.1152-1.5616-6.8818-2.3283-11.3-2.3283h-13.31z"/><path d="m339.41 81.837h-10.847v68.57h10.847z"/><path d="m402.25 119.15v-16.497c0-4.3726-0.82128-8.1773-2.5205-11.414-1.6709-3.2368-4.0498-5.7355-7.1367-7.4959-3.0869-1.732-6.7119-2.6122-10.903-2.6122-4.1914 0-7.873 0.82342-11.017 2.4418-3.1435 1.6468-5.579 4.0035-7.2783 7.0984-1.6709 3.0949-2.5205 6.7293-2.5205 10.875v27.939c0 4.401 0.82128 8.2341 2.5205 11.499 1.6709 3.2652 4.0498 5.7639 7.1367 7.5243 3.0869 1.732 6.7119 2.6122 10.875 2.6122 4.0781 0 7.5898-0.79501 10.478-2.3567 2.8886-1.59 5.1826-3.9183 6.8535-7.0416 1.6426-3.0949 2.6338-6.928 2.9453-11.499h-11.385c-0.16992 2.2431-0.65136 4.0887-1.416 5.5935-0.76465 1.4765-1.7842 2.6122-3.0586 3.3788-1.2744 0.73823-2.747 1.1357-4.4179 1.1357-1.9258 0-3.625-0.45429-5.0693-1.3345s-2.5488-2.1295-3.3134-3.7763c-0.76464-1.6184-1.1611-3.5492-1.1611-5.7355v-27.939c0-1.9308 0.39648-3.6344 1.2178-5.0824 0.79296-1.4481 1.9258-2.5554 3.3984-3.3504s3.2285-1.1925 5.2109-1.1925 3.7099 0.42591 5.1259 1.2493c1.4443 0.8518 2.5771 2.0443 3.3418 3.6344 0.79297 1.59 1.1894 3.4924 1.1894 5.7071v6.3601h-9.4023v10.278z"/><path d="m433.63 81.837h-10.847v68.57h10.847z"/><path d="m452.49 150.41h41.489v-10.335h-41.489zm15.378-5.6503h10.677v-62.92h-10.677z"/><path d="m274.78 62.558v-1.6752h-7.4199v1.6752z"/><path d="m308.31 55.062s-0.39649 0.22715-1.1894 0.68145c-0.79296 0.45429-1.416 1.1073-1.8408 1.9591-0.42481 0.8518-0.62305 1.874-0.62305 3.0381v7.0416c0 1.1641 0.19824 2.1863 0.62305 3.0381 0.4248 0.8518 1.0478 1.5048 1.8408 1.9592 0.79296 0.45429 1.7558 0.68144 2.832 0.68144 1.0195 0 1.8974-0.19876 2.6621-0.62465 0.76464-0.39752 1.3877-0.99378 1.8125-1.7888 0.45313-0.76663 0.73633-1.7036 0.79297-2.7542h-1.8125c-0.0566 0.70983-0.25488 1.3345-0.5664 1.8456-0.31152 0.53948-0.708 0.93699-1.2178 1.2209-0.48145 0.28394-1.0478 0.4259-1.6709 0.4259-0.708 0-1.331-0.17036-1.8691-0.48268-0.50977-0.34073-0.90625-0.79502-1.1894-1.3913-0.2832-0.59627-0.4248-1.3061-0.4248-2.1295v-7.0416c0-0.82341 0.1416-1.5332 0.4248-2.1295s0.67968-1.0506 1.1894-1.3629c0.53808-0.34073 1.1611-0.48269 1.8691-0.48269 0.62304 0 1.1894 0.14196 1.6709 0.3975 0.50976 0.28394 0.90624 0.68145 1.2178 1.2209 0.31152 0.51109 0.50976 1.1357 0.5664 1.874h1.8125c-0.0566-1.079-0.33984-1.9875-0.79297-2.7826-0.45312-0.76662-1.0478-1.3629-1.8125-1.7888-0.76464-0.39751-1.6426-0.62466-2.6621-0.62466h-1.6426z"/><path d="m330.31 55.743c-0.82128 0.42589-1.4443 1.0506-1.8691 1.9024-0.4248 0.82341-0.65136 1.8456-0.65136 3.0097v7.2119c0 1.1925 0.22656 2.1863 0.65136 3.0381 0.4248 0.82341 1.0478 1.4765 1.8691 1.9024 0.82129 0.4259 1.8125 0.65305 2.9736 0.65305 1.1611 0 2.1523-0.22715 2.9453-0.65305 0.82129-0.4259 1.4443-1.079 1.8974-1.9024 0.4248-0.8518 0.62304-1.8456 0.62304-3.0381v-7.2119c0-1.1641-0.19824-2.1863-0.62304-3.0097-0.45312-0.85181-1.0762-1.4765-1.8974-1.9024-0.79296-0.4543-1.7842-0.68145-2.9453-0.68145-1.1611 0-2.1523 0.22715-2.9736 0.68145zm4.956 1.4764c0.53808 0.31233 0.96288 0.73823 1.2461 1.3061s0.42481 1.2493 0.42481 2.0443v7.3823c0 0.82341-0.14161 1.5048-0.42481 2.0727s-0.708 0.99377-1.2461 1.2777c-0.5664 0.31232-1.2178 0.45429-1.9824 0.45429-0.76464 0-1.4443-0.14197-1.9824-0.45429-0.53808-0.28394-0.96289-0.70984-1.2461-1.2777-0.31152-0.56787-0.45312-1.2493-0.45312-2.0727v-7.3823c0-0.79502 0.1416-1.4765 0.45312-2.0443 0.2832-0.56787 0.70801-0.99377 1.2461-1.3061 0.53808-0.28393 1.2178-0.4259 1.9824-0.4259 0.76465 0 1.416 0.14197 1.9824 0.4259z"/><path d="m352.15 73.29h1.7558l8.2128-15.503-0.53809 0.0852v15.418h1.8125v-18.03h-1.8125l-8.2695 15.588 0.65136-0.19876v-15.389h-1.8125z"/><path d="m376.33 73.29h10.875v-1.6752h-10.875zm4.5312-1.1074h1.8125v-16.922h-1.8125z"/><path d="m399.67 73.29h1.8125v-18.03h-1.8125zm1.1045-8.7452h4.8144c0.62304 0 1.1328 0.11357 1.5859 0.36911s0.79297 0.59626 1.0478 1.0506c0.25488 0.4543 0.36816 0.99378 0.36816 1.6184v0.93698c0 0.62465-0.11328 1.1925-0.36816 1.6468-0.22656 0.48268-0.56641 0.82341-1.0195 1.079s-0.9912 0.39751-1.6142 0.39751h-4.8144v1.6468h4.7011c0.9912 0 1.8691-0.17036 2.6054-0.56787 0.76464-0.36912 1.331-0.90859 1.7275-1.59 0.39649-0.70984 0.59473-1.5332 0.59473-2.4986v-1.0506c0-0.93699-0.19824-1.7888-0.59473-2.4986-0.39648-0.70984-0.96288-1.2493-1.7275-1.6468-0.73633-0.36912-1.6142-0.56787-2.6054-0.56787h-4.7011zm4.8144-1.1074 1.6426 0.56787 3.8232-8.7452h-2.1523z"/><path d="m426.01 55.743c-0.82128 0.42589-1.4443 1.0506-1.8691 1.9024-0.45312 0.82341-0.65136 1.8456-0.65136 3.0097v7.2119c0 1.1925 0.19824 2.1863 0.65136 3.0381 0.4248 0.82341 1.0478 1.4765 1.8691 1.9024s1.8125 0.65305 2.9453 0.65305c1.1611 0 2.1523-0.22715 2.9736-0.65305 0.82128-0.4259 1.4443-1.079 1.8691-1.9024 0.4248-0.8518 0.65136-1.8456 0.65136-3.0381v-7.2119c0-1.1641-0.22656-2.1863-0.65136-3.0097-0.4248-0.85181-1.0478-1.4765-1.8691-1.9024-0.82129-0.4543-1.8125-0.68145-2.9736-0.68145-1.1328 0-2.124 0.22715-2.9453 0.68145zm4.9277 1.4764c0.5664 0.31233 0.96289 0.73823 1.2461 1.3061 0.31152 0.56787 0.45312 1.2493 0.45312 2.0443v7.3823c0 0.82341-0.1416 1.5048-0.45312 2.0727-0.2832 0.56787-0.67969 0.99377-1.2461 1.2777-0.53808 0.31232-1.1894 0.45429-1.9824 0.45429-0.76464 0-1.416-0.14197-1.9824-0.45429-0.53808-0.28394-0.96288-0.70984-1.2461-1.2777s-0.4248-1.2493-0.4248-2.0727v-7.3823c0-0.79502 0.1416-1.4765 0.4248-2.0443s0.708-0.99377 1.2461-1.3061c0.56641-0.28393 1.2178-0.4259 1.9824-0.4259 0.79297 0 1.4443 0.14197 1.9824 0.4259z"/><path d="m447.84 73.29h1.7842v-18.03h-1.7842zm1.2744-16.383h8.3827v-1.6468h-8.3827z"/><path d="m493.98 62.558v-1.6752h-7.4482v1.6752z"/></g></svg>
