<?xml version="1.0" encoding="UTF-8"?>
<!-- Created with Inkscape (http://www.inkscape.org/) -->
<svg width="210mm" height="297mm" version="1.1" viewBox="0 0 210 297" xmlns="http://www.w3.org/2000/svg">
 <g fill="#fefefe">
  <path d="m49.306 197.38h-48.205v21.145h34.638c4.3559 0 7.8827 3.5358 7.8827 7.9031v11.659c0 4.3672-3.5267 7.9031-7.8827 7.9031h-34.638v21.145h48.205c8.0725 0 14.626-6.5709 14.626-14.664v-40.427c0-8.0934-6.5539-14.664-14.626-14.664z"/>
  <path d="m84.083 197.97h7.8027v49.702h-7.8027zm4.7756 42.22h9.6111c2.2679 0 4.0263-0.59097 5.2651-1.783 1.2388-1.182 1.8583-2.8748 1.8583-5.0884v-20.985c0-2.2137-0.61942-3.9165-1.8583-5.0984-1.2388-1.182-2.9972-1.7729-5.2651-1.7729h-9.6111v-7.4924h9.681c3.1571 0 5.8645 0.56093 8.1124 1.6828 2.2479 1.1118 3.9663 2.7345 5.1452 4.8681 1.1789 2.1335 1.7783 4.7078 1.7783 7.7428v21.125c0 2.9549-0.58945 5.5191-1.7584 7.6727-1.1689 2.1536-2.8773 3.7863-5.1352 4.9181-2.2479 1.1319-4.9754 1.6928-8.1824 1.6928h-9.641z"/>
  <path d="m136.31 247.68h-7.8727v-49.702h7.8727z"/>
  <path d="m181.86 220.64v11.96c0 3.1652-0.60943 5.9298-1.8183 8.2737-1.2189 2.3439-2.9472 4.1569-5.1852 5.419-2.2379 1.2621-4.8655 1.8931-7.8926 1.8931-3.0472 0-5.7147-0.59098-7.9926-1.7729-2.2879-1.182-4.0462-2.9048-5.2651-5.1485-1.2288-2.2437-1.8483-4.8681-1.8483-7.873v-20.244c0-3.1853 0.60944-5.9599 1.8283-8.3338 1.2189-2.3739 2.9373-4.1869 5.1852-5.449 2.2379-1.2721 4.8655-1.9032 7.8927-1.9032 2.9472 0 5.4749 0.57095 7.5829 1.7128 2.098 1.1419 3.7565 2.8347 4.9554 5.0884 1.2089 2.2537 1.9182 5.0383 2.148 8.3438h-8.2523c-0.12987-1.6227-0.47955-2.9649-1.039-4.0467-0.54949-1.0818-1.2888-1.9032-2.2079-2.444-0.92914-0.55091-1.9882-0.82136-3.187-0.82136-1.4187 0-2.6376 0.32053-3.6866 0.95157-1.049 0.64106-1.8483 1.5526-2.4078 2.7345-0.54949 1.182-0.82923 2.5743-0.82923 4.1669v20.244c0 1.4123 0.28973 2.6444 0.86919 3.6861 0.57946 1.0517 1.3987 1.8631 2.4677 2.424 1.069 0.57095 2.3278 0.86143 3.7865 0.86143 1.4287 0 2.6675-0.3005 3.7165-0.91151 1.049-0.601 1.8483-1.4825 2.4178-2.6244 0.56947-1.1519 0.8592-2.5242 0.8592-4.1268v-4.6076h-6.8236v-7.4523z"/>
  <path d="m204.61 247.68h-7.8827v-49.702h7.8827z"/>
  <path d="m218.28 197.97h30.072v7.4924h-30.072zm11.15 4.1068h7.7428v45.595h-7.7428z"/>
  <path d="m89.478 261.66v1.202h-5.395v-1.202z"/>
  <path d="m113.79 267.08s-0.28974-0.17029-0.86919-0.50083c-0.57947-0.32053-1.0191-0.80133-1.3288-1.4123-0.30971-0.62103-0.46956-1.3522-0.46956-2.1936v-5.1085c0-0.85141 0.15985-1.5826 0.46956-2.2036 0.30971-0.62102 0.7493-1.0918 1.3288-1.4224 0.57945-0.33055 1.2588-0.49081 2.0481-0.49081 0.73931 0 1.3787 0.15025 1.9382 0.45074 0.54949 0.3005 0.98908 0.73121 1.3088 1.2921 0.32969 0.57095 0.51951 1.2421 0.56946 2.0133h-1.3088c-0.0499-0.52086-0.18982-0.9716-0.41961-1.3522-0.21979-0.38063-0.51951-0.67111-0.87918-0.88146-0.34967-0.20033-0.75929-0.3005-1.2089-0.3005-0.51952 0-0.9691 0.11018-1.3488 0.35058-0.37964 0.23038-0.66937 0.56093-0.86919 1.0017-0.2098 0.43071-0.30971 0.94156-0.30971 1.5426v5.1085c0 0.59098 0.0999 1.1018 0.30971 1.5426 0.19982 0.43072 0.48955 0.76126 0.86919 0.99164 0.37965 0.23038 0.82923 0.35058 1.3488 0.35058 0.45957 0 0.8592-0.10016 1.2189-0.30049 0.35967-0.20034 0.6494-0.49082 0.86919-0.87145 0.22979-0.38063 0.36966-0.84139 0.41961-1.3622h1.3088c-0.05 0.77128-0.23977 1.4424-0.56946 2.0033-0.3297 0.57094-0.76929 1.0016-1.3188 1.3022-0.55948 0.3005-1.1989 0.45075-1.9282 0.45075h-1.1789z"/>
  <path d="m129.73 266.6c-0.59944-0.32053-1.049-0.78129-1.3587-1.3823-0.31971-0.60099-0.46957-1.3322-0.46957-2.1936v-5.2286c0-0.85141 0.14986-1.5826 0.46957-2.1936 0.30971-0.601 0.75929-1.0618 1.3587-1.3823 0.58945-0.31052 1.3088-0.47078 2.148-0.47078s1.5486 0.16026 2.138 0.47078c0.59944 0.32053 1.049 0.78129 1.3587 1.3823 0.3197 0.61101 0.46956 1.3422 0.46956 2.1936v5.2286c0 0.86143-0.14986 1.5926-0.46956 2.1936-0.30971 0.601-0.75929 1.0618-1.3587 1.3823-0.58945 0.32053-1.2988 0.4808-2.138 0.4808s-1.5586-0.16027-2.148-0.4808zm3.5767-1.0818c0.39963-0.22037 0.69935-0.53088 0.90915-0.94156 0.20981-0.41068 0.30971-0.90149 0.30971-1.4925v-5.3488c0-0.58096-0.0999-1.0718-0.30971-1.4825-0.2098-0.41068-0.50952-0.73121-0.90915-0.94155-0.39963-0.22037-0.86919-0.32054-1.4287-0.32054s-1.039 0.10017-1.4387 0.32054c-0.39963 0.21034-0.69935 0.53087-0.90915 0.94155-0.20981 0.41068-0.31971 0.9015-0.31971 1.4825v5.3488c0 0.59098 0.1099 1.0818 0.31971 1.4925 0.2098 0.41068 0.50952 0.72119 0.90915 0.94156 0.39963 0.21035 0.87918 0.32053 1.4387 0.32053s1.029-0.11018 1.4287-0.32053z"/>
  <path d="m145.55 253.88h1.2788l5.9445 11.239-0.38964-0.0601v-11.179h1.3188v13.052h-1.3088l-6.0044-11.279 0.46956 0.13021v11.148h-1.3088z"/>
  <path d="m163.08 253.88h7.8926v1.202h-7.8926zm3.277 0.80133h1.3188v12.26h-1.3188z"/>
  <path d="m179.98 253.87h1.3188v13.072h-1.3188zm0.80924 6.3405h3.4968c0.43959 0 0.81924-0.0801 1.1489-0.26043 0.32969-0.1803 0.57946-0.44073 0.7493-0.77128 0.17984-0.33054 0.26975-0.72119 0.26975-1.1619v-0.69114c0-0.45075-0.0899-0.85141-0.25976-1.192-0.16984-0.34056-0.4296-0.60099-0.7493-0.78129-0.32969-0.1803-0.71933-0.27045-1.1589-0.27045h-3.4968v-1.212h3.4068c0.72932 0 1.3587 0.14023 1.8982 0.41068 0.5395 0.27044 0.94912 0.65107 1.2388 1.1619 0.28973 0.51084 0.4296 1.1118 0.4296 1.803v0.76126c0 0.69115-0.13987 1.3022-0.4296 1.813-0.28973 0.51084-0.69935 0.9115-1.2388 1.182-0.53949 0.28047-1.1689 0.4207-1.8982 0.4207h-3.4068zm3.4968 0.80133 1.1889-0.41068 2.7574 6.3405h-1.5486z"/>
  <path d="m199.08 266.6c-0.58945-0.32053-1.039-0.78129-1.3587-1.3823-0.30971-0.60099-0.46957-1.3322-0.46957-2.1936v-5.2286c0-0.85141 0.15986-1.5826 0.46957-2.1936 0.3197-0.601 0.76928-1.0618 1.3587-1.3823 0.58945-0.31052 1.3088-0.47078 2.148-0.47078s1.5586 0.16026 2.148 0.47078c0.58945 0.32053 1.039 0.78129 1.3587 1.3823 0.30971 0.61101 0.46956 1.3422 0.46956 2.1936v5.2286c0 0.86143-0.15985 1.5926-0.46956 2.1936-0.31971 0.601-0.76929 1.0618-1.3587 1.3823s-1.3088 0.4808-2.148 0.4808-1.5586-0.16027-2.148-0.4808zm3.5867-1.0818c0.38964-0.22037 0.69935-0.53088 0.89917-0.94156 0.2098-0.41068 0.30971-0.90149 0.30971-1.4925v-5.3488c0-0.58096-0.0999-1.0718-0.30971-1.4825-0.19982-0.41068-0.50953-0.73121-0.89917-0.94155-0.39963-0.22037-0.87918-0.32054-1.4387-0.32054s-1.039 0.10017-1.4387 0.32054c-0.39963 0.21034-0.69935 0.53087-0.90915 0.94155-0.20981 0.41068-0.30971 0.9015-0.30971 1.4825v5.3488c0 0.59098 0.0999 1.0818 0.30971 1.4925 0.2098 0.41068 0.50952 0.72119 0.90915 0.94156 0.39963 0.21035 0.87918 0.32053 1.4387 0.32053s1.039-0.11018 1.4387-0.32053z"/>
  <path d="m214.9 253.88h1.3088v13.062h-1.3088zm0.92913 11.86h6.0743v1.202h-6.0743z"/>
  <path d="m248.35 261.66v1.202h-5.395v-1.202z"/>
 </g>
</svg>
