<?xml version="1.0" encoding="UTF-8"?>
<!-- Created with Inkscape (http://www.inkscape.org/) -->
<svg width="450" height="450" version="1.1" viewBox="0 0 450 450" xml:space="preserve" xmlns="http://www.w3.org/2000/svg"><defs><clipPath id="clipPath987"><path d="m330.46 464.12h-0.1015-0.0283 0.0283 0.1015z" clip-rule="evenodd"/></clipPath><linearGradient id="linearGradient993" x1="385.74" x2="362.54" y1="482.63" y2="437.2" gradientUnits="userSpaceOnUse"><stop stop-color="#ac648f" offset="0"/><stop stop-color="#8d6170" offset="1"/></linearGradient><clipPath id="clipPath6836"><path d="m2819.3 800.41 3.9704 1312.5c0.1517 57.681-46.23 104.25-103.06 104.25-1.0369 0-2.0738-0.018-3.1107-0.048l-729.07-21.8c-16.461 36.42-47.431 79.2-102.14 79.2-6.4211 0-13.171-0.5893-20.262-1.8513-35.259-6.2592-55.288-39.849-66.168-82.988l-711.7-21.291c85.8 342.42-20.409 641.83-70.89 756.24-1.4111 3.212-3.4926 5.6395-5.9508 7.3593 153.33 138.31 371.27 273.53 661.44 311.47 58.781 7.6881 119.21 11.557 180.41 11.557 311.98 0 645.38-100.75 898.3-312.66 635.07-532.07 589.86-1606.9 162.87-2056.4-33.155-34.892-65.248-62.501-94.634-85.472zm-1217.8 1823.3c-1.2898 0-2.5796-0.025-3.8617-0.051-115.93-2.0738-208.22-97.75-206.13-213.69 2.071-114.64 95.651-206.16 209.84-206.16 1.2795 0 2.5693 0.01 3.8491 0.041 115.94 2.0888 208.22 97.757 206.13 213.69-2.0688 114.65-95.638 206.17-209.83 206.17zm451.55 409.82c-1.6109 0-3.2295 0-4.8404-0.051-145.4-2.6048-261.15-122.6-258.52-267.99 2.5894-143.8 119.96-258.57 263.17-258.57 1.6084 0 3.2193 0.02 4.8379 0.038 145.4 2.6325 261.14 122.63 258.52 268.02-2.5898 143.77-119.96 258.56-263.17 258.56zm-1447.4-1849c-118.74 252.95-142.55 547.18-94.181 827.21 21.385-101.3 54.825-202.16 105.29-299.21zm1263.6 1007.1c7.1696 11.3 16.661 18.709 29.078 20.419 0 0 0.7613 0.081 2.0916 0.081 5.7989 0 22.49-1.5806 35.83-18.5l-67-2.0004zm-1022.5 351.29c-9.3798 57.711-23.886 110.87-41.773 159.53 41.447 56.801 99.272 127.99 174.54 200.14-16.537-66.866-52.954-183.22-132.77-359.67" clip-rule="evenodd"/></clipPath><linearGradient id="linearGradient6842" x1="3422.2" x2="1119.3" y1="-315.6" y2="2731" gradientUnits="userSpaceOnUse"><stop stop-color="#dae3fe" offset="0"/><stop stop-color="#e9effd" offset="1"/></linearGradient><clipPath id="clipPath6860"><path d="m3020 689.94c-35.684 362.85-124.98 1264.1-144.48 1395.8-24.48 165.56-225.74 129.02-225.74 129.02l-43.093-1675.4h280.59c37.732 0 73.669 16.39 98.959 45.119 25.264 28.729 37.555 66.929 33.762 105.46" clip-rule="evenodd"/></clipPath><linearGradient id="linearGradient6866" x1="2856.5" x2="2816.7" y1="2272" y2="807.22" gradientUnits="userSpaceOnUse"><stop stop-color="#09005d" offset="0"/><stop stop-color="#1a0f91" offset="1"/></linearGradient><clipPath id="clipPath6876"><path d="m2720.7 455c-0.7081 0-1.4161 0.01-2.1242 0.0202l-1968.7 42.1c-73.396 1.5704-134.1 53.141-150.78 121.76 7.0333-4.6508 15.44-7.4401 24.574-7.5793l2064.1-31.89h0.6069c19.549 0 36.139 14.61 38.567 34.23 40.767 325.53 9.61 1241.3 1.2645 1463.7-1.0117 26.65-22.736 47.58-49.012 47.58-0.5309 0-1.0621-0.01-1.593-0.03l-638.72-20.54c-32.482 39.902-81.971 65.29-137.18 65.29-1.08 0-2.1597-0.01-3.2499-0.028-14.041-0.2503-27.659-2.1319-40.699-5.4601 2.9084 10.599 6.6892 19.979 11.52 27.609l67 2.0004c1.1608-1.4794 2.2986-3.0702 3.3988-4.7899 2.8805-0.05 5.771-0.071 8.649-0.071 14.011 0 28.062 0.4805 42.001 1.1988-0.7183 1.7223-1.4794 3.4622-2.2686 5.2123l729.07 21.8c1.0369 0.03 2.0738 0.048 3.1107 0.048 56.826 0 103.21-46.568 103.06-104.25l-3.9704-1312.5-0.7337-247.05c-0.1768-54.482-44.055-98.362-97.82-98.362zm-2123.4 335.89 8.2851 393.7 11.11 528 6.4817 308.04c0.7412 35.269 14.312 67.351 36.208 91.69 8.7806 9.7594 18.894 18.259 30.067 25.239 0.8852 0.5513 1.7779 1.0902 2.6782 1.6313 19.645 11.648 42.375 18.608 66.681 19.329l67.443 2.0205 15.859 0.4805 245.6 7.3392 711.7 21.291c-4.7015-18.6-7.6907-38.971-9.4711-59.701-12.329-10.04-23.272-21.709-32.5-34.66l-1047-33.671c-23.952-0.7688-42.492-21.289-41.166-45.41 24.303-441.75-34.966-958.93-71.998-1225.3" clip-rule="evenodd"/></clipPath><linearGradient id="linearGradient6882" x1="665.39" x2="3437.4" y1="2201.5" y2="-3.43" gradientUnits="userSpaceOnUse"><stop stop-color="#09005d" offset="0"/><stop stop-color="#1a0f91" offset="1"/></linearGradient><clipPath id="clipPath6892"><path d="m2688.3 579.41h-0.6069l-2064.1 31.89c-9.1346 0.1392-17.541 2.9285-24.574 7.5793-14.552 9.6304-23.216 27.27-20.28 46.101 4.7619 30.53 11.203 73.33 18.512 125.91 37.032 266.39 96.301 783.57 71.998 1225.3-1.3252 24.121 17.214 44.641 41.166 45.41l1047 33.671c-7.9106-11.1-14.559-23.14-19.759-35.919l-980.79-31.541c-23.051-0.7385-40.893-20.48-39.616-43.69 28.006-509.04-59.297-1122.1-87.103-1300.3-4.193-26.88 16.185-51.242 43.167-51.662l1986.3-30.689c0.1769-0.01 0.3792-0.01 0.5816-0.01 18.816 0 34.774 14.071 37.125 32.94 39.224 313.28 9.256 1194.6 1.1886 1408.6-0.961 25.638-21.876 45.779-47.165 45.779-0.4805 0-1.0114-0.01-1.5174-0.02l-589.04-18.95c-6.0013 12.41-13.421 24-22.03 34.568l638.72 20.54c0.5309 0.023 1.0621 0.03 1.593 0.03 26.276 0 48-20.93 49.012-47.58 8.3455-222.38 39.502-1138.2-1.2645-1463.7-2.4279-19.62-19.018-34.23-38.567-34.23" clip-rule="evenodd"/></clipPath><linearGradient id="linearGradient6898" x1="3175.6" x2="904.83" y1="270.2" y2="1897.4" gradientUnits="userSpaceOnUse"><stop stop-color="#4f52ff" offset="0"/><stop stop-color="#4042e2" offset="1"/></linearGradient><clipPath id="clipPath6980"><path d="m2318.6 1349.4c-0.5791 10.06-11.001 14.37-18.682 8.28-21.678-17.22-30.499-43.961-41.179-68.9-12.45-29.07-24.389-58.361-34.988-88.16-11.17-31.42-20.702-63.412-27.96-95.891-14.392 38.8-31.111 76.59-52.322 112.44-5.6296 9.519-21.529 3.9503-18.378-7.3491 18.338-65.731 40.908-130.12 58.189-196.18 6.0896-23.312 37.71-17.812 40.069 4.5876 6.431 61.181 21.092 119.71 41.89 177.49 9.8907 27.47 20.932 54.509 32.371 81.349 10.128 23.782 22.52 45.941 20.99 72.331" clip-rule="evenodd"/></clipPath><linearGradient id="linearGradient6986" x1="2752.8" x2="2098.5" y1="1791.2" y2="1028.5" gradientUnits="userSpaceOnUse"><stop stop-color="#e1473d" offset="0"/><stop stop-color="#e9605a" offset="1"/></linearGradient><clipPath id="clipPath6996"><path d="m2348.3 1300.6c-18.858 3.5606-25.73-20.781-8.4288-28.448 114.45-50.762 129.41-193.8 46.73-280.41-38.24-40.062-88.982-71.16-137.02-97.891-48.731-27.1-103.13-47.81-159.68-42.09-131.08 13.28-148.9 147.77-109.71 251.55 37.689 99.818 118.42 176.88 217.26 213.82 12.761 4.7699 7.8222 25.72-5.2679 20.988-92.73-33.519-171.66-99.649-220.55-186.19-44.973-79.602-71.962-191.88-13.082-271.78 60.92-82.69 176.55-84.169 263.67-49.699 95.84 37.919 215.16 108.26 253.31 210.33 39.97 106.94-9.3597 237.59-127.23 259.82" clip-rule="evenodd"/></clipPath><linearGradient id="linearGradient7002" x1="2753.1" x2="2140.5" y1="1756.7" y2="994.5" gradientUnits="userSpaceOnUse"><stop stop-color="#e1473d" offset="0"/><stop stop-color="#e9605a" offset="1"/></linearGradient><clipPath id="clipPath7024"><path d="m2421.7 2207.6c-18.75 40.188-55.129 86.63-121.23 74.898-89.311-15.849-80.892-207.01-73.702-284.61 1.6917-18.259 20.391-32.348 42.901-32.348 6.2493 0 12.21 2.1901 16.38 5.9684 4.1802 3.791 6.1682 8.8514 5.5105 13.902-7.721 58.66-24.142 227.57 41.619 236.61 0 0 16.699 2.4001 31.91-11.33 18.868 0.2602 37.74-1.7198 56.608-3.0881" clip-rule="evenodd"/></clipPath><linearGradient id="linearGradient7030" x1="2288.3" x2="2322.5" y1="2879.3" y2="2225.6" gradientUnits="userSpaceOnUse"><stop stop-color="#4f52ff" offset="0"/><stop stop-color="#4042e2" offset="1"/></linearGradient><clipPath id="clipPath7040"><path d="m1790 2129.9c1.7804 20.73 4.7696 41.101 9.4711 59.701 10.88 43.139 30.909 76.729 66.168 82.988 7.0912 1.262 13.841 1.8513 20.262 1.8513 54.709 0 85.679-42.78 102.14-79.2 0.7892-1.7501 1.5503-3.49 2.2686-5.2123-13.94-0.7183-27.991-1.1988-42.001-1.1988-2.878 0-5.7685 0.02-8.649 0.071-1.1002 1.7197-2.238 3.3105-3.3988 4.7899-13.34 16.919-30.032 18.5-35.83 18.5-1.3303 0-2.0916-0.081-2.0916-0.081-12.417-1.7095-21.908-9.1193-29.078-20.419-4.8303-7.63-8.6111-17.01-11.52-27.609-25.211-6.4312-48.21-18.272-67.741-34.182" clip-rule="evenodd"/></clipPath><linearGradient id="linearGradient7046" x1="1848" x2="1884.2" y1="2884.4" y2="2210.4" gradientUnits="userSpaceOnUse"><stop stop-color="#4f52ff" offset="0"/><stop stop-color="#4042e2" offset="1"/></linearGradient><clipPath id="clipPath7056"><path d="m1557.2 2175.8c-16.803 42.1-53.551 99.909-126.51 86.961-89.311-15.852-80.879-207.11-73.699-284.72 1.6892-18.259 20.388-32.399 42.899-32.399 6.2515 0 12.21 2.1597 16.38 5.938 4.1805 3.7809 6.1707 8.8311 5.5105 13.892-7.7207 58.649-24.139 227.79 41.619 236.82 0 0 25.431 2.2887 42.08-25.452 17.101-1.3402 34.601-2.0687 51.723-1.0391" clip-rule="evenodd"/></clipPath><linearGradient id="linearGradient7062" x1="1422.2" x2="1456.5" y1="2830.4" y2="2179.1" gradientUnits="userSpaceOnUse"><stop stop-color="#4f52ff" offset="0"/><stop stop-color="#4042e2" offset="1"/></linearGradient><clipPath id="clipPath7072"><path d="m995.87 2251.3c-89.313-15.849-80.889-207.22-73.699-284.82 1.6895-18.269 20.388-32.46 42.899-32.46 6.2515 0 12.205 2.1396 16.38 5.9205 4.1726 3.7783 6.1679 8.8186 5.5029 13.869-7.7159 58.66-24.131 227.99 41.619 237.02 0 0 23.56 2.7589 40.18-21.279 17.589-0.6423 35.17-3.022 52.759-2.931-17.179 41.819-53.92 97.411-125.64 84.68" clip-rule="evenodd"/></clipPath><linearGradient id="linearGradient7078" x1="987.59" x2="1021.8" y1="2808" y2="2156.3" gradientUnits="userSpaceOnUse"><stop stop-color="#4f52ff" offset="0"/><stop stop-color="#4042e2" offset="1"/></linearGradient><clipPath id="clipPath7088"><path d="m2247.7 1600.2c0-11.072 0.7081-19.142 2.1294-24.202 1.429-5.0579 3.7984-7.5895 7.1192-7.5895 3.3205 0 5.7305 2.5316 7.2304 7.5895 1.4995 5.0604 2.2507 13.13 2.2507 24.202 0 11.08-0.7713 19.129-2.3091 24.149-1.5401 5.0198-3.9325 7.5313-7.172 7.5313-3.2499 0-5.5992-2.5115-7.0585-7.5313-1.4616-5.0199-2.1901-13.07-2.1901-24.149zm43.979 0.2378c0-18.009-2.9996-31.67-9.0108-40.99-5.9987-9.3294-14.66-13.99-25.96-13.99-11.858 0-20.53 4.5598-26.031 13.692-5.4879 9.1196-8.2395 22.72-8.2395 40.81 0 17.85 2.8299 31.501 8.4796 40.939 5.6523 9.4408 14.251 14.16 25.79 14.16 23.312 0 34.971-18.198 34.971-54.62zm-36.63 121.92-71.61-174.75h-24.551l71.38 174.75zm-107.42-52.352c0-11.079 0.7107-19.147 2.1419-24.21 1.4187-5.0578 3.7885-7.5892 7.109-7.5892s5.7282 2.5314 7.2303 7.5892c1.4998 5.0633 2.2482 13.131 2.2482 24.21 0 11.072-0.7688 19.142-2.3088 24.202-1.5401 5.0607-3.93 7.5895-7.1697 7.5895-3.3205 0-5.6903-2.5288-7.109-7.5895-1.4312-5.0604-2.1419-13.13-2.1419-24.202zm43.992 0.2302c0-17.999-2.9895-31.688-8.9502-41.048-5.9709-9.3699-14.65-14.051-26.031-14.051-11.78 0-20.431 4.5799-25.96 13.75-5.5411 9.1601-8.3001 22.791-8.3001 40.881 0 36.728 11.421 55.099 34.26 55.099 23.32 0 34.981-18.209 34.981-54.631" clip-rule="evenodd"/></clipPath><linearGradient id="linearGradient7094" x1="2476" x2="2085.8" y1="2365.2" y2="1306.8" gradientUnits="userSpaceOnUse"><stop stop-color="#ff928e" offset="0"/><stop stop-color="#fe7062" offset="1"/></linearGradient><clipPath id="clipPath7104"><path d="m1188.4 1322.6c0-11.082 0.7081-19.152 2.1393-24.21 1.4187-5.0607 3.7885-7.592 7.109-7.592s5.7308 2.5313 7.2303 7.592c1.4998 5.0579 2.2507 13.128 2.2507 24.21 0 11.07-0.7713 19.119-2.3113 24.139-1.5401 5.0198-3.9275 7.5285-7.1697 7.5285-3.2397 0-5.5891-2.5087-7.0481-7.5285-1.4695-5.0202-2.2002-13.07-2.2002-24.139zm43.989 0.2404c0-18.011-3.0095-31.68-9.0107-41-6.0089-9.3217-14.668-13.993-25.97-13.993-11.848 0-20.53 4.5623-26.018 13.692-5.5006 9.1193-8.242 22.73-8.242 40.82 0 17.85 2.8224 31.488 8.4722 40.929 5.6497 9.4507 14.248 14.17 25.788 14.17 23.32 0 34.981-18.209 34.981-54.618zm-36.64 121.91-71.61-174.74h-24.539l71.37 174.74zm-107.42-52.35c0-11.082 0.7208-19.152 2.1396-24.2 1.4213-5.0706 3.7907-7.592 7.1115-7.592 3.3205 0 5.7305 2.5214 7.2304 7.592 1.4995 5.0476 2.2583 13.118 2.2583 24.2 0 11.069-0.769 19.139-2.3091 24.2-1.5503 5.0604-3.9401 7.5895-7.1796 7.5895-3.3208 0-5.6902-2.5291-7.1115-7.5895-1.4188-5.0604-2.1396-13.13-2.1396-24.2zm43.991 0.2401c0-18.011-2.9815-31.7-8.9498-41.06-5.9709-9.3597-14.64-14.041-26.021-14.041-11.78 0-20.439 4.5799-25.97 13.74-5.5307 9.1598-8.2999 22.791-8.2999 40.881 0 36.731 11.421 55.099 34.27 55.099 23.31 0 34.97-18.209 34.97-54.618" clip-rule="evenodd"/></clipPath><linearGradient id="linearGradient7110" x1="1322.9" x2="1092.2" y1="1821.9" y2="1211.2" gradientUnits="userSpaceOnUse"><stop stop-color="#ff928e" offset="0"/><stop stop-color="#fe7062" offset="1"/></linearGradient><clipPath id="clipPath7120"><path d="m3032.9 1939.5c-0.4047 0.1491-220.15 384.97-249.84 421.18-4.9822 6.09-12.721 9.2004-20.535 8.2599l-61.353-7.3089-72.05-155.87 120.05 69.908c-11.886-82.148 142.3-204.23 195.21-248.78 5.3614-4.5193 5.8167-12.62 0.9609-17.69l-21.117-22.101c34.672-35.137 74.655-57.698 119.8-68.128z" clip-rule="evenodd"/></clipPath><linearGradient id="linearGradient7126" x1="3085.5" x2="2739.1" y1="2261.3" y2="2063.9" gradientUnits="userSpaceOnUse"><stop stop-color="#febbba" offset="0"/><stop stop-color="#ff928e" offset="1"/></linearGradient><clipPath id="clipPath7136"><path d="m2936.4 1999s-13.479-4.3498-18.032-16.35c-2.2002-5.7407 0.1517-12.25 5.1591-15.821 22.179-15.9 95.367-67.22 129.15-77.268 2.7567-0.8323 5.3869 1.6792 4.7797 4.4989-1.745 7.8397-7.3337 23.509-25.416 46.45l1.6439-3.28c2.0483-4.1502-2.4784-8.4696-6.5248-6.1886-22.584 12.749-68.586 40.658-90.765 67.959" clip-rule="evenodd"/></clipPath><linearGradient id="linearGradient7142" x1="3040" x2="2886" y1="2063.8" y2="1688.4" gradientUnits="userSpaceOnUse"><stop stop-color="#4f52ff" offset="0"/><stop stop-color="#4042e2" offset="1"/></linearGradient><clipPath id="clipPath7152"><path d="m2947.3 1845.1c-0.3792 0.2404-33.332 79.67-33.711 79.9-30.221 184.04-103.97 341.66-125.72 383.13-3.6672 6.98-10.622 11.58-18.462 12.25l-61.53 5.2577-102.12-138.07 131.71 44.171c-28.249-78.049 98.048-228.81 140.81-283.14 4.3498-5.5083 3.1357-13.53-2.6302-17.521l-25.163-17.369c26.858-41.42 61.454-71.61 103.56-90.97z" clip-rule="evenodd"/></clipPath><linearGradient id="linearGradient7158" x1="3052" x2="4237.4" y1="2212.6" y2="2954.6" gradientUnits="userSpaceOnUse"><stop stop-color="#febbba" offset="0"/><stop stop-color="#ff928e" offset="1"/></linearGradient><clipPath id="clipPath7168"><path d="m2864.9 1922.9s-14.086-1.54-20.99-12.372c-3.2877-5.1794-2.3012-12.018 1.8714-16.54 18.512-20.06 79.789-85.13 110.84-101.81 2.5291-1.3706 5.6143 0.559 5.5891 3.4395-0.1012 8.0397-2.4279 24.521-15.477 50.63l0.9357-3.5305c1.1633-4.4788-4.1474-7.7993-7.6374-4.7492-19.524 17.06-58.95 53.7-75.136 84.93" clip-rule="evenodd"/></clipPath><linearGradient id="linearGradient7174" x1="2979.5" x2="2752.8" y1="1965.3" y2="1629.5" gradientUnits="userSpaceOnUse"><stop stop-color="#4f52ff" offset="0"/><stop stop-color="#4042e2" offset="1"/></linearGradient><clipPath id="clipPath7184"><path d="m2419.8 2354.7s-55.68-82.799-60.25-120.58c-4.5598-37.77 15.399-50.83 73.669-55.65 173.4-14.329 258.88 37.641 258.88 37.641 11.861 75.629 20.308 94.869 119.39 135.99 0 0-125.31-9.9391-150.55-0.1596-25.214 9.7898-241.14 2.7593-241.14 2.7593" clip-rule="evenodd"/></clipPath><linearGradient id="linearGradient7190" x1="2761.5" x2="2479" y1="2493.2" y2="2206.9" gradientUnits="userSpaceOnUse"><stop stop-color="#e1473d" offset="0"/><stop stop-color="#e9605a" offset="1"/></linearGradient><clipPath id="clipPath7200"><path d="m2641.8 2818.6s-38.769 45.876-79.991-10.419c-7.4605-10.192-36.147-1.7954-46.657-23.115-5.4297-11.026-17.159-17.273-29.23-15.047-30.089 5.5383-79.26 5.9935-103.53-41.121-18.53-35.987-4.231-57.054 14.299-69.066 13.601-8.8008 18.459-26.706 10.23-40.691-7.8906-13.378-9.37-31.536 11.001-53.361 45.658-48.948 136.05 31.03 136.05 31.03l71.772 169.59z" clip-rule="evenodd"/></clipPath><linearGradient id="linearGradient7206" x1="2699" x2="2553.8" y1="2893.3" y2="2750.1" gradientUnits="userSpaceOnUse"><stop stop-color="#09005d" offset="0"/><stop stop-color="#1a0f91" offset="1"/></linearGradient><clipPath id="clipPath7216"><path d="m2570.3 2365.7s64.843 61.73 96.733 102.62c17.273 22.101 22.685 51.199 14.693 78.089-14.567 49.062-40.438 99.92-42.816 107.84-3.6162 12.114-76.299 11.608-76.299 11.608s-143.06-92.838-199.26-250.09l63.12-19.65s37.35 62.66 74.251 102.5c0 0-63.859-84.361-66.11-118.89z" clip-rule="evenodd"/></clipPath><linearGradient id="linearGradient7222" x1="2685.3" x2="1879.6" y1="2639" y2="1852.6" gradientUnits="userSpaceOnUse"><stop stop-color="#e1473d" offset="0"/><stop stop-color="#e9605a" offset="1"/></linearGradient><clipPath id="clipPath7232"><path d="m2693.9 2341.3-48.708 53.01-56.244-15.151s-65.596-10.159-103.14 0l-37.54 10.161-84.832 26.41-13.33-37.651c-3.3786-9.5596 0.023-20.179 8.2825-26.051 7.3389-5.22 15.95-10.948 21.428-13.348 11.17-4.8807 257.36-1.5401 257.36-1.5401z" clip-rule="evenodd"/></clipPath><linearGradient id="linearGradient7238" x1="2480.1" x2="2137" y1="2377" y2="2377" gradientUnits="userSpaceOnUse"><stop stop-color="#febbba" offset="0"/><stop stop-color="#ff928e" offset="1"/></linearGradient><clipPath id="clipPath7248"><path d="m2612.6 2753.2-48.86-90.84c3.2369-19.827 53.184-20.384 60.898-8.5479 0.7841 1.2138 1.2394 2.6048 1.5174 3.9957l29.235 60.721c1.2645 5.9176-14.972 25.846-20.308 28.704l-19.422 10.344c-7.4858 3.9705 23.722 4.2738-3.06-4.3752" clip-rule="evenodd"/></clipPath><linearGradient id="linearGradient7254" x1="2800.9" x2="2502.9" y1="3007.6" y2="2516" gradientUnits="userSpaceOnUse"><stop stop-color="#febbba" offset="0"/><stop stop-color="#ff928e" offset="1"/></linearGradient><clipPath id="clipPath7264"><path d="m2711.5 2774.5s5.5131-30.676-18.613-69.724c-24.127-39.022-48.152-37.252-60.341-23.317-12.215 13.909-26.832 37.075-20.181 75.995 6.6512 38.946 90.79 56.194 99.136 17.045" clip-rule="evenodd"/></clipPath><linearGradient id="linearGradient7270" x1="2612.3" x2="2749" y1="2655.8" y2="2897.2" gradientUnits="userSpaceOnUse"><stop stop-color="#febbba" offset="0"/><stop stop-color="#ff928e" offset="1"/></linearGradient><clipPath id="clipPath7280"><path d="m2641.6 2753.3s39.047 51.313 69.041 6.5753l-0.506-15.452s38.997 1.8462 34.774 37.783c-4.2233 35.937-36.063 60.493-80.219 48.228-44.13-12.291-69.926-26.276-74.908-56.927-4.9819-30.651 20.03-25.644 20.03-25.644s9.5595 21.167 21.117 22.609c11.532 1.4414 7.3593-15.3 7.3593-15.3z" clip-rule="evenodd"/></clipPath><linearGradient id="linearGradient7286" x1="2788.9" x2="2589.2" y1="2803.5" y2="2765.8" gradientUnits="userSpaceOnUse"><stop stop-color="#09005d" offset="0"/><stop stop-color="#1a0f91" offset="1"/></linearGradient><clipPath id="clipPath7296"><path d="m2632.6 2754.6s20.232 26.276 1.821 31.713c-18.411 5.4627-17.728-25.72-16.54-37.328z" clip-rule="evenodd"/></clipPath><linearGradient id="linearGradient7302" x1="2588.5" x2="2689.6" y1="2673.5" y2="2928.5" gradientUnits="userSpaceOnUse"><stop stop-color="#febbba" offset="0"/><stop stop-color="#ff928e" offset="1"/></linearGradient><clipPath id="clipPath7312"><path d="m2532.6 2320.3c0.1772-0.01 0.3541-0.01 0.5312-0.01l224.07 0.2404c5.5383 0.01 10.014 4.4988 10.014 10.04 0 5.5383-4.5267 10.118-10.04 10.02l-224.07-0.2503c-5.5386 0-10.028-4.4991-10.017-10.03 0-5.3716 4.2182-9.7517 9.5113-10.01" clip-rule="evenodd"/></clipPath><linearGradient id="linearGradient7318" x1="2494.6" x2="2672.5" y1="2379.6" y2="2321.5" gradientUnits="userSpaceOnUse"><stop stop-color="#09005d" offset="0"/><stop stop-color="#1a0f91" offset="1"/></linearGradient><clipPath id="clipPath7328"><path d="m2958.6 2523.8h-186.59c-13.757 0-26.301-7.9486-32.168-20.399l-86.263-182.92h231.88c8.8767 0 16.843 5.4195 20.105 13.672l66.917 169.27c3.8441 9.7796-3.3636 20.379-13.884 20.379" clip-rule="evenodd"/></clipPath><linearGradient id="linearGradient7334" x1="2960.5" x2="1350.8" y1="2408.9" y2="2545.5" gradientUnits="userSpaceOnUse"><stop stop-color="#09005d" offset="0"/><stop stop-color="#1a0f91" offset="1"/></linearGradient><clipPath id="clipPath7344"><path d="m2827.2 2430c-4.0462-12.571-1.0622-24.771 6.6764-27.262 7.7389-2.4783 17.273 5.6801 21.319 18.252 4.0462 12.559 1.0621 24.759-6.6764 27.25-7.7389 2.4885-17.273-5.6801-21.319-18.239" clip-rule="evenodd"/></clipPath><linearGradient id="linearGradient7350" x1="2948" x2="1526" y1="2410.2" y2="2535.8" gradientUnits="userSpaceOnUse"><stop stop-color="#09005d" offset="0"/><stop stop-color="#1a0f91" offset="1"/></linearGradient><clipPath id="clipPath7360"><path d="m1901.5 1815.9c-96.212 0-175.04 77.101-176.79 173.69-0.44 24.69 4.2006 48.291 12.961 69.812 5.1996 12.779 11.848 24.819 19.759 35.919 9.2282 12.951 20.171 24.619 32.5 34.66 19.531 15.91 42.53 27.75 67.741 34.182 13.039 3.3282 26.658 5.2098 40.699 5.4601 1.0902 0.018 2.1699 0.028 3.2499 0.028 55.21 0 104.7-25.388 137.18-65.29 8.6089-10.569 16.029-22.159 22.03-34.568 10.829-22.351 17.101-47.36 17.579-73.831 1.3808-76.8-46.399-143.05-114.37-168.71-16.14-6.0899-33.41-9.8883-51.429-11.009-2.5996-0.1619-5.2299-0.2605-7.8599-0.3112-1.0902-0.02-2.1699-0.03-3.2499-0.03zm0.1191 347.87c-1.0395 0-2.0892-0.01-3.1385-0.028-94.422-1.7019-169.59-79.632-167.88-174.05 1.6792-93.37 77.9-167.91 170.9-167.91 1.0395 0 2.0892 0.01 3.1411 0.03 94.419 1.6996 169.59 79.62 167.89 174.05-1.6891 93.37-77.9 167.91-170.91 167.91" clip-rule="evenodd"/></clipPath><linearGradient id="linearGradient7366" x1="1665.4" x2="1896.5" y1="1707.5" y2="1987.1" gradientUnits="userSpaceOnUse"><stop stop-color="#e1473d" offset="0"/><stop stop-color="#e9605a" offset="1"/></linearGradient><clipPath id="clipPath7376"><path d="m1901.5 1821.7c-93 0-169.22 74.542-170.9 167.91-1.7096 94.419 73.459 172.35 167.88 174.05 1.0493 0.018 2.099 0.028 3.1385 0.028 93.01 0 169.22-74.539 170.91-167.91 1.6997-94.432-73.469-172.35-167.89-174.05-1.0519-0.02-2.1016-0.03-3.1411-0.03zm3.8999 312.06c-0.8801 0-1.7705-0.01-2.6606-0.018-79.91-1.4414-143.53-67.4-142.09-147.31 1.4315-79.028 65.94-142.12 144.65-142.12 0.8875 0 1.7677 0.01 2.6577 0.02 79.921 1.4491 143.54 67.4 142.09 147.32-1.4187 79.02-65.93 142.11-144.65 142.11zm-3.8012 22.5c-0.999 0-1.9877-0.01-2.9892-0.028-62.099-1.1203-117.45-36.592-144.46-92.58-1.3709-2.84-0.1798-6.2617 2.6705-7.63 0.7991-0.3921 1.6387-0.5715 2.4783-0.5715h0.1012c2.0889 0.041 4.0793 1.2317 5.0505 3.242 25.12 52.069 76.61 85.06 134.37 86.099 0.9207 0.02 1.8513 0.03 2.7694 0.03 8.2999 0 16.61-0.6701 24.721-1.9902 0.3212-0.061 0.65-0.081 0.9712-0.081 2.7388 0 5.1386 2.0004 5.5989 4.7999 0.5009 3.1107-1.6109 6.0494-4.7191 6.5602-8.7199 1.4315-17.639 2.1495-26.562 2.1495" clip-rule="evenodd"/></clipPath><linearGradient id="linearGradient7382" x1="2076.2" x2="1790.6" y1="2461.5" y2="1694.8" gradientUnits="userSpaceOnUse"><stop stop-color="#ff928e" offset="0"/><stop stop-color="#fe7062" offset="1"/></linearGradient><clipPath id="clipPath7392"><path d="m1759.3 2055.5c-0.8396 0-1.6792 0.1794-2.4783 0.5715-2.8503 1.3683-4.0414 4.79-2.6705 7.63 27.009 55.989 82.361 91.46 144.46 92.58 1.0015 0.018 1.9902 0.028 2.9892 0.028 8.9223 0 17.842-0.718 26.562-2.1495 3.1082-0.5108 5.22-3.4495 4.7191-6.5602-0.4603-2.7995-2.8601-4.7999-5.5989-4.7999-0.3212 0-0.65 0.02-0.9712 0.081-8.1105 1.3201-16.421 1.9902-24.721 1.9902-0.9181 0-1.8487-0.01-2.7694-0.03-57.759-1.0394-109.25-34.03-134.37-86.099-0.9712-2.0103-2.9616-3.2015-5.0505-3.242h-0.1012" clip-rule="evenodd"/></clipPath><linearGradient id="linearGradient7398" x1="2076.5" x2="1790.1" y1="2461.5" y2="1694.8" gradientUnits="userSpaceOnUse"><stop stop-color="#ffd1d0" offset="0"/><stop stop-color="#ffc3bd" offset="1"/></linearGradient><clipPath id="clipPath7408"><path d="m1905.3 1844.4c-78.712 0-143.22 63.09-144.65 142.12-1.4388 79.913 62.18 145.87 142.09 147.31 0.8901 0.01 1.7805 0.018 2.6606 0.018 78.719 0 143.23-63.088 144.65-142.11 1.4491-79.921-62.17-145.87-142.09-147.32-0.89-0.01-1.7702-0.02-2.6577-0.02" clip-rule="evenodd"/></clipPath><linearGradient id="linearGradient7414" x1="2076.2" x2="1790.6" y1="2461.5" y2="1694.8" gradientUnits="userSpaceOnUse"><stop stop-color="#ffe7e6" offset="0"/><stop stop-color="#ffe0dd" offset="1"/></linearGradient><clipPath id="clipPath7424"><path d="m1893.1 1881.3-0.2781 15.738c-16.421 0.3617-32.73 3.9427-44.351 8.7806-4.1502 1.7297-6.33 6.3122-5.22 10.67l3.7304 14.731c1.3706 5.4094 7.1697 8.3002 12.349 6.2388 11.53-4.5898 25.72-8.128 40.942-7.8599 15.808 0.2908 27.498 5.8621 27.3 16.84-0.1721 9.9212-9.3926 15.652-31.47 21.14-31.501 8.0119-54.252 21.271-54.75 48.872-0.4527 24.908 17.43 44.26 48.948 49.919l-0.2809 15.748c-0.088 5.0607 3.9401 9.241 9.0107 9.3422l9.2512 0.1593c5.0604 0.091 9.2381-3.9402 9.3294-9.0108l0.2602-14.129c15.199-0.339 26.299-2.7312 35.12-5.6599 4.5295-1.4896 7.0685-6.2895 5.9103-10.91l-3.4393-13.631c-1.3201-5.2577-6.8613-8.2193-11.962-6.3983-8.1281 2.9109-19.61 5.8898-34.45 5.6194-18.76-0.339-23.97-8.2091-23.848-15.169 0.1593-8.5708 11.509-14.271 36.028-21.332 35.021-9.8201 49.75-24.02 50.21-50.01 0.4298-23.848-16.858-45.6-51.06-51.578l0.3212-17.622c0.091-5.0578-3.9402-9.2383-9.0108-9.3293l-9.2508-0.1693c-5.0582-0.089-9.2486 3.9399-9.3396 9.0105" clip-rule="evenodd"/></clipPath><linearGradient id="linearGradient7430" x1="1998.5" x2="1902.5" y1="2338" y2="1968.5" gradientUnits="userSpaceOnUse"><stop stop-color="#ff928e" offset="0"/><stop stop-color="#fe7062" offset="1"/></linearGradient><clipPath id="clipPath7440"><path d="m2052.8 2506.9c-143.21 0-260.58 114.78-263.17 258.57-2.6303 145.39 113.12 265.39 258.52 267.99 1.6109 0.051 3.2295 0.051 4.8404 0.051 143.21 0 260.58-114.79 263.17-258.56 2.62-145.39-113.12-265.39-258.52-268.02-1.6186-0.018-3.2295-0.038-4.8379-0.038zm0.1896 517.87c-1.5604 0-3.1206-0.025-4.6913-0.051-140.56-2.5288-252.45-118.53-249.92-259.09 2.5112-139.02 115.97-249.97 254.42-249.97 1.5602 0 3.1181 0.013 4.6786 0.04 140.57 2.5316 252.46 118.55 249.93 259.11-2.5087 138.99-115.97 249.96-254.42 249.96" clip-rule="evenodd"/></clipPath><linearGradient id="linearGradient7446" x1="1703.6" x2="2046" y1="2345.6" y2="2761.8" gradientUnits="userSpaceOnUse"><stop stop-color="#e1473d" offset="0"/><stop stop-color="#e9605a" offset="1"/></linearGradient><clipPath id="clipPath7456"><path d="m2052.8 2515.7c-138.45 0-251.91 110.95-254.42 249.97-2.5291 140.56 109.36 256.56 249.92 259.09 1.5707 0.025 3.1309 0.051 4.6913 0.051 138.45 0 251.91-110.97 254.42-249.96 2.5316-140.56-109.36-256.58-249.93-259.11-1.5605-0.028-3.1184-0.04-4.6786-0.04zm5.819 464.55c-1.3201 0-2.6402 0-3.9603-0.025-118.98-2.1495-213.68-100.32-211.54-219.31 2.1319-117.62 98.162-211.55 215.34-211.55 1.3203 0 2.6404 0 3.9605 0.025 118.97 2.1495 213.68 100.32 211.53 219.31-2.1192 117.65-98.149 211.55-215.33 211.55zm-5.6801 29.867c-1.459 0-2.9106 0-4.3699-0.025-91.068-1.6438-172.25-53.665-211.86-135.78-1.171-2.4278-0.1491-5.3362 2.2785-6.5247 0.6905-0.3289 1.4113-0.4805 2.1319-0.4805h0.078c1.7904 0.025 3.49 1.0369 4.322 2.7564 37.99 78.778 115.86 128.67 203.23 130.24 1.391 0.025 2.7896 0.05 4.1806 0.05 12.561 0 25.12-1.0114 37.391-3.0348 0.2809-0.05 0.5589-0.076 0.8396-0.076 2.3394 0 4.3903 1.7198 4.7798 4.1222 0.43 2.6555-1.3706 5.1843-4.0388 5.6143-12.791 2.099-25.882 3.136-38.961 3.136" clip-rule="evenodd"/></clipPath><linearGradient id="linearGradient7462" x1="2270.7" x2="1939.8" y1="3240.2" y2="2526.1" gradientUnits="userSpaceOnUse"><stop stop-color="#ff928e" offset="0"/><stop stop-color="#fe7062" offset="1"/></linearGradient><clipPath id="clipPath7472"><path d="m1841.1 2867.3c-0.7206 0-1.4414 0.1516-2.1319 0.4805-2.4276 1.1885-3.4495 4.0969-2.2785 6.5247 39.611 82.116 120.79 134.14 211.86 135.78 1.4593 0.025 2.9109 0.025 4.3699 0.025 13.08 0 26.17-1.037 38.961-3.136 2.6682-0.43 4.4688-2.9588 4.0388-5.6143-0.3895-2.4024-2.4404-4.1222-4.7798-4.1222-0.2807 0-0.5587 0.025-0.8396 0.076-12.271 2.0234-24.829 3.0348-37.391 3.0348-1.391 0-2.7896-0.025-4.1806-0.05-87.368-1.5678-165.24-51.464-203.23-130.24-0.832-1.7195-2.5316-2.7312-4.322-2.7564h-0.078" clip-rule="evenodd"/></clipPath><linearGradient id="linearGradient7478" x1="2271.7" x2="1938.9" y1="3240.2" y2="2526.1" gradientUnits="userSpaceOnUse"><stop stop-color="#ffd1d0" offset="0"/><stop stop-color="#ffc3bd" offset="1"/></linearGradient><clipPath id="clipPath7488"><path d="m2058.4 2549.4c-117.18 0-213.21 93.926-215.34 211.55-2.1393 118.99 92.56 217.16 211.54 219.31 1.3201 0.025 2.6402 0.025 3.9603 0.025 117.18 0 213.21-93.9 215.33-211.55 2.152-118.99-92.558-217.16-211.53-219.31-1.3201-0.025-2.6402-0.025-3.9605-0.025" clip-rule="evenodd"/></clipPath><linearGradient id="linearGradient7494" x1="2270.7" x2="1939.8" y1="3240.2" y2="2526.1" gradientUnits="userSpaceOnUse"><stop stop-color="#ffe7e6" offset="0"/><stop stop-color="#ffe0dd" offset="1"/></linearGradient><clipPath id="clipPath7504"><path d="m2040.3 2604.3-0.4297 23.443c-24.44 0.5565-48.711 5.8672-66.011 13.075-6.1784 2.5796-9.428 9.408-7.7791 15.882l5.5613 21.952c2.0384 8.0422 10.67 12.341 18.378 9.2812 17.162-6.8533 38.281-12.114 60.951-11.709 23.53 0.43 40.941 8.7251 40.641 25.088-0.2605 14.744-13.98 23.266-46.842 31.46-46.897 11.912-80.768 31.663-81.509 72.733-0.6701 37.1 25.94 65.905 72.87 74.326l-0.4199 23.443c-0.1391 7.5365 5.8595 13.758 13.401 13.909l13.78 0.2276c7.539 0.152 13.758-5.8671 13.899-13.403l0.3793-21.041c22.619-0.5057 39.141-4.0714 52.289-8.4214 6.732-2.2255 10.52-9.3572 8.7806-16.236l-5.1086-20.307c-1.9701-7.8146-10.212-12.24-17.812-9.5091-12.099 4.3245-29.19 8.7502-51.29 8.3709-27.92-0.5057-35.679-12.215-35.499-22.609 0.2404-12.746 17.139-21.218 53.639-31.738 52.13-14.617 74.051-35.76 74.751-74.453 0.6398-35.507-25.11-67.878-76.011-76.78l0.4705-26.225c0.1389-7.5362-5.87-13.758-13.411-13.909l-13.77-0.2276c-7.539-0.1517-13.77 5.8419-13.899 13.378" clip-rule="evenodd"/></clipPath><linearGradient id="linearGradient7510" x1="1450.8" x2="1700.4" y1="1169.3" y2="1819.6" gradientUnits="userSpaceOnUse"><stop stop-color="#ff928e" offset="0"/><stop stop-color="#fe7062" offset="1"/></linearGradient><clipPath id="clipPath7520"><path d="m1565.7 1579.6c-13.811 0-27.229 1.7804-40.021 5.1112-63.619 16.56-111.94 71.689-117.96 139.33-0.3413 3.7607-0.5411 7.5489-0.612 11.38-0.1695 9.2509 0.4604 18.32 1.821 27.158 4.6709 30.401 17.999 58.022 37.431 80.201 28.438 32.49 69.959 53.311 116.54 54.151 0.9685 0.02 1.9499 0.03 2.9185 0.03 28.952 0 56.151-7.7893 79.571-21.41 23.588-13.709 43.359-33.35 57.218-56.902 13.401-22.778 21.291-49.209 21.8-77.508 0.033-1.8813 0.033-3.7604 0-5.6319-1.3986-83.719-67.878-152.13-151.71-155.76-1.3504-0.051-2.721-0.099-4.0816-0.1188-0.9686-0.02-1.95-0.031-2.9186-0.031zm0.1089 312.08c-0.9281 0-1.8689-0.01-2.8199-0.03-84.7-1.5199-152.13-71.431-150.61-156.14 1.5097-83.76 69.89-150.63 153.33-150.63 0.9306 0 1.8688 0.01 2.8097 0.028 84.71 1.5225 152.14 71.431 150.61 156.13-1.51 83.769-69.88 150.64-153.32 150.64" clip-rule="evenodd"/></clipPath><linearGradient id="linearGradient7526" x1="1353.3" x2="1561.6" y1="1482.4" y2="1733.2" gradientUnits="userSpaceOnUse"><stop stop-color="#e1473d" offset="0"/><stop stop-color="#e9605a" offset="1"/></linearGradient><clipPath id="clipPath7536"><path d="m1565.7 1584.9c-83.441 0-151.82 66.868-153.33 150.63-1.52 84.71 65.91 154.62 150.61 156.14 0.951 0.02 1.8918 0.03 2.8199 0.03 83.441 0 151.81-66.871 153.32-150.64 1.5299-84.7-65.9-154.61-150.61-156.13-0.9409-0.018-1.8791-0.028-2.8097-0.028zm3.5002 279.95c-0.8019 0-1.5908-0.01-2.3899-0.02-71.691-1.2898-128.76-60.46-127.47-132.15 1.2795-70.902 59.15-127.5 129.76-127.5 0.8016 0 1.6007 0.01 2.3899 0.03 71.701 1.2898 128.77 60.45 127.47 132.15-1.2693 70.9-59.15 127.49-129.76 127.49zm-3.4217 17.92c-0.8802 0-1.7578-0.01-2.6379-0.03-54.851-0.9913-103.74-32.32-127.59-81.769-0.6905-1.4213-0.091-3.1309 1.3402-3.8211 0.3997-0.1897 0.8195-0.2784 1.2393-0.2784h0.051c1.0496 0.018 2.0409 0.6095 2.5316 1.6186 22.91 47.489 69.858 77.581 122.54 78.53 0.8396 0.01 1.6792 0.02 2.5189 0.02 7.5716 0 15.151-0.6094 22.551-1.8207 0.1593-0.028 0.3212-0.038 0.4805-0.038 1.381 0 2.5795 0.9989 2.8097 2.4 0.2506 1.5577-0.8093 3.0297-2.3695 3.2877-7.7009 1.262-15.581 1.9017-23.461 1.9017" clip-rule="evenodd"/></clipPath><linearGradient id="linearGradient7542" x1="1766.8" x2="1456" y1="2222.3" y2="1474.2" gradientUnits="userSpaceOnUse"><stop stop-color="#ff928e" offset="0"/><stop stop-color="#fe7062" offset="1"/></linearGradient><clipPath id="clipPath7552"><path d="m1438.1 1796.9c-0.4198 0-0.8396 0.089-1.2393 0.2784-1.4315 0.6902-2.0307 2.3998-1.3402 3.8211 23.851 49.449 72.741 80.778 127.59 81.769 0.8801 0.02 1.7577 0.03 2.6379 0.03 7.88 0 15.76-0.6397 23.461-1.9017 1.5602-0.258 2.6201-1.73 2.3695-3.2877-0.2302-1.4011-1.4287-2.4-2.8097-2.4-0.1593 0-0.3212 0.01-0.4805 0.038-7.3996 1.2113-14.979 1.8207-22.551 1.8207-0.8397 0-1.6793-0.01-2.5189-0.02-52.681-0.9485-99.629-31.04-122.54-78.53-0.4907-1.0091-1.482-1.6007-2.5316-1.6186h-0.051" clip-rule="evenodd"/></clipPath><linearGradient id="linearGradient7558" x1="1767.9" x2="1455.3" y1="2222.3" y2="1474.2" gradientUnits="userSpaceOnUse"><stop stop-color="#ffd1d0" offset="0"/><stop stop-color="#ffc3bd" offset="1"/></linearGradient><clipPath id="clipPath7568"><path d="m1569.1 1605.2c-70.609 0-128.48 56.598-129.76 127.5-1.2898 71.689 55.779 130.86 127.47 132.15 0.7991 0.01 1.588 0.02 2.3899 0.02 70.609 0 128.49-56.591 129.76-127.49 1.3-71.699-55.769-130.86-127.47-132.15-0.7892-0.02-1.5883-0.03-2.3899-0.03" clip-rule="evenodd"/></clipPath><linearGradient id="linearGradient7574" x1="1766.8" x2="1456.1" y1="2222.3" y2="1474.2" gradientUnits="userSpaceOnUse"><stop stop-color="#ffe7e6" offset="0"/><stop stop-color="#ffe0dd" offset="1"/></linearGradient><clipPath id="clipPath7584"><path d="m1558.1 1638.3-0.2503 14.129c-14.742 0.3211-29.362 3.5305-39.781 7.8701-3.7302 1.5503-5.6801 5.6599-4.6911 9.5698l3.3508 13.221c1.2291 4.8507 6.4287 7.4404 11.079 5.5891 10.331-4.1097 23.062-7.2885 36.721-7.0382 14.18 0.2503 24.67 5.2478 24.501 15.108-0.1619 8.892-8.4317 14.031-28.241 18.962-28.251 7.1898-48.67 19.078-49.11 43.84-0.4096 22.349 15.632 39.71 43.911 44.788l-0.2503 14.119c-0.089 4.5522 3.5303 8.3002 8.0799 8.3809l8.2899 0.152c4.5496 0.078 8.3001-3.5408 8.3786-8.0802l0.2302-12.68c13.631-0.301 23.593-2.4505 31.511-5.0808 4.0615-1.3402 6.3402-5.6497 5.3008-9.7895l-3.0804-12.23c-1.1912-4.7115-6.1606-7.3721-10.74-5.7308-7.2885 2.5999-17.589 5.2704-30.899 5.03-16.83-0.2982-21.512-7.3593-21.4-13.611 0.1389-7.6881 10.328-12.789 32.32-19.129 31.42-8.811 44.629-21.55 45.049-44.869 0.3917-21.39-15.128-40.901-45.81-46.262l0.2909-15.809c0.078-4.5496-3.5405-8.3001-8.0802-8.3783l-8.3001-0.152c-4.5394-0.078-8.2999 3.5408-8.3784 8.0802" clip-rule="evenodd"/></clipPath><linearGradient id="linearGradient7590" x1="1296.7" x2="1374" y1="675.4" y2="973.46" gradientUnits="userSpaceOnUse"><stop stop-color="#ff928e" offset="0"/><stop stop-color="#fe7062" offset="1"/></linearGradient><clipPath id="clipPath7600"><path d="m1601.3 2203.8c-114.19 0-207.77 91.518-209.84 206.16-2.0891 115.94 90.201 211.62 206.13 213.69 1.2821 0.025 2.5719 0.051 3.8617 0.051 114.19 0 207.76-91.523 209.83-206.17 2.0914-115.93-90.188-211.6-206.13-213.69-1.2798-0.03-2.5696-0.041-3.8491-0.041zm0.1391 412.92c-1.2393 0-2.4808-0.025-3.7303-0.05-112.07-2.0231-201.29-94.5-199.27-206.58 2.0005-110.83 92.459-199.31 202.86-199.31 1.2393 0 2.4783 0.02 3.7301 0.038 112.07 2.0206 201.29 94.51 199.27 206.59-2.0004 110.83-92.472 199.31-202.86 199.31" clip-rule="evenodd"/></clipPath><linearGradient id="linearGradient7606" x1="1322.8" x2="1595.8" y1="2075.2" y2="2407.1" gradientUnits="userSpaceOnUse"><stop stop-color="#e1473d" offset="0"/><stop stop-color="#e9605a" offset="1"/></linearGradient><clipPath id="clipPath7616"><path d="m1601.3 2210.8c-110.4 0-200.86 88.478-202.86 199.31-2.0205 112.08 87.202 204.56 199.27 206.58 1.2495 0.025 2.491 0.05 3.7303 0.05 110.39 0 200.86-88.481 202.86-199.31 2.0182-112.08-87.201-204.57-199.27-206.59-1.2518-0.018-2.4908-0.038-3.7301-0.038zm4.6281 370.41c-1.0497 0-2.0991 0-3.1487-0.025-94.862-1.7198-170.37-79.994-168.66-174.85 1.6892-93.8 78.259-168.69 171.69-168.69 1.0497 0 2.0991 0.01 3.1587 0.028 94.862 1.7121 170.37 80.002 168.66 174.85-1.6894 93.812-78.259 168.69-171.7 168.69zm-4.5397 25.088c-1.1582 0-2.3292 0-3.49-0.025-73.1-1.315-138.26-43.094-170.04-108.98-1.2393-2.5617-0.1695-5.6597 2.41-6.9015 0.7209-0.349 1.4922-0.5083 2.2507-0.5083h0.081c1.889 0.03 3.6998 1.1104 4.5697 2.9208 30.08 62.359 91.738 101.89 160.91 103.13 1.1075 0.026 2.2076 0.026 3.3179 0.026 9.9312 0 19.87-0.8093 29.612-2.3775 0.2982-0.076 0.589-0.076 0.8875-0.076 2.4809 0 4.6307 1.8207 5.0505 4.3246 0.46 2.8324-1.4593 5.4879-4.269 5.9428-10.29 1.6946-20.791 2.5291-31.291 2.5291" clip-rule="evenodd"/></clipPath><linearGradient id="linearGradient7622" x1="1687.6" x2="1549.8" y1="2841.8" y2="2158.2" gradientUnits="userSpaceOnUse"><stop stop-color="#ff928e" offset="0"/><stop stop-color="#fe7062" offset="1"/></linearGradient><clipPath id="clipPath7632"><path d="m1432.5 2489.9c-0.7585 0-1.5298 0.1593-2.2507 0.5083-2.5795 1.2418-3.6493 4.3398-2.41 6.9015 31.782 65.887 96.94 107.67 170.04 108.98 1.1608 0.025 2.3318 0.025 3.49 0.025 10.5 0 21.001-0.8345 31.291-2.5291 2.8097-0.4549 4.729-3.1104 4.269-5.9428-0.4198-2.5039-2.5696-4.3246-5.0505-4.3246-0.2985 0-0.5893 0-0.8875 0.076-9.7419 1.5682-19.681 2.3775-29.612 2.3775-1.1103 0-2.2104 0-3.3179-0.026-69.172-1.239-130.83-40.767-160.91-103.13-0.8699-1.8104-2.6807-2.8904-4.5697-2.9208h-0.081" clip-rule="evenodd"/></clipPath><linearGradient id="linearGradient7638" x1="1687.8" x2="1549.4" y1="2841.8" y2="2158.2" gradientUnits="userSpaceOnUse"><stop stop-color="#ffd1d0" offset="0"/><stop stop-color="#ffc3bd" offset="1"/></linearGradient><clipPath id="clipPath7648"><path d="m1605.8 2237.7c-93.43 0-170 74.89-171.69 168.69-1.7095 94.859 73.798 173.13 168.66 174.85 1.0496 0.025 2.099 0.025 3.1487 0.025 93.44 0 170.01-74.878 171.7-168.69 1.7121-94.849-73.798-173.14-168.66-174.85-1.0596-0.018-2.109-0.028-3.1587-0.028" clip-rule="evenodd"/></clipPath><linearGradient id="linearGradient7654" x1="1687.6" x2="1549.9" y1="2841.8" y2="2158.2" gradientUnits="userSpaceOnUse"><stop stop-color="#ffe7e6" offset="0"/><stop stop-color="#ffe0dd" offset="1"/></linearGradient><clipPath id="clipPath7664"><path d="m1591.3 2281.4-0.3413 18.682c-19.491 0.4275-38.84 4.6786-52.64 10.43-4.919 2.0486-7.511 7.4883-6.2011 12.66l4.4309 17.488c1.631 6.4108 8.5201 9.8402 14.66 7.3896 13.682-5.4397 30.53-9.6378 48.599-9.3192 18.76 0.3413 32.641 6.9597 32.401 19.992-0.2101 11.77-11.15 18.57-37.35 25.1-37.391 9.4989-64.39 25.239-64.989 57.989-0.5312 29.579 20.69 52.55 58.11 59.261l-0.3413 18.689c-0.1088 6.0188 4.6811 10.981 10.69 11.082l10.981 0.2021c6.0089 0.1012 10.971-4.676 11.08-10.695l0.3109-16.77c18.029-0.3994 31.21-3.2496 41.69-6.7195 5.3688-1.7801 8.3886-7.4704 7.0002-12.951l-4.0717-16.18c-1.5704-6.239-8.1383-9.7594-14.2-7.5895-9.6505 3.4495-23.279 6.9801-40.898 6.6589-22.26-0.3997-28.451-9.7291-28.299-17.999 0.1794-10.182 13.659-16.929 42.757-25.32 41.571-11.651 59.051-28.519 59.61-59.36 0.5108-28.309-20.019-54.13-60.609-61.221l0.3693-20.909c0.1111-6.0191-4.6687-10.978-10.69-11.09l-10.978-0.1897c-6.0114-0.1111-10.971 4.6712-11.08 10.69" clip-rule="evenodd"/></clipPath><linearGradient id="linearGradient7670" x1="1754.2" x2="1602.5" y1="2950.4" y2="2386" gradientUnits="userSpaceOnUse"><stop stop-color="#ff928e" offset="0"/><stop stop-color="#fe7062" offset="1"/></linearGradient></defs><g transform="matrix(1.3333 0 0 -1.3333 0 1122.5)"><g transform="translate(-108.6 173.11)"><g clip-path="url(#clipPath987)"><path d="m330.46 464.12h-0.1015-0.0283 0.0283 0.1015z" fill="url(#linearGradient993)" fill-rule="evenodd"/></g></g><g transform="matrix(.12053 0 0 .11538 -53.712 459.27)"><g clip-path="url(#clipPath6836)"><path d="m2819.3 800.41 3.9704 1312.5c0.1517 57.681-46.23 104.25-103.06 104.25-1.0369 0-2.0738-0.018-3.1107-0.048l-729.07-21.8c-16.461 36.42-47.431 79.2-102.14 79.2-6.4211 0-13.171-0.5893-20.262-1.8513-35.259-6.2592-55.288-39.849-66.168-82.988l-711.7-21.291c85.8 342.42-20.409 641.83-70.89 756.24-1.4111 3.212-3.4926 5.6395-5.9508 7.3593 153.33 138.31 371.27 273.53 661.44 311.47 58.781 7.6881 119.21 11.557 180.41 11.557 311.98 0 645.38-100.75 898.3-312.66 635.07-532.07 589.86-1606.9 162.87-2056.4-33.155-34.892-65.248-62.501-94.634-85.472zm-1217.8 1823.3c-1.2898 0-2.5796-0.025-3.8617-0.051-115.93-2.0738-208.22-97.75-206.13-213.69 2.071-114.64 95.651-206.16 209.84-206.16 1.2795 0 2.5693 0.01 3.8491 0.041 115.94 2.0888 208.22 97.757 206.13 213.69-2.0688 114.65-95.638 206.17-209.83 206.17zm451.55 409.82c-1.6109 0-3.2295 0-4.8404-0.051-145.4-2.6048-261.15-122.6-258.52-267.99 2.5894-143.8 119.96-258.57 263.17-258.57 1.6084 0 3.2193 0.02 4.8379 0.038 145.4 2.6325 261.14 122.63 258.52 268.02-2.5898 143.77-119.96 258.56-263.17 258.56zm-1447.4-1849c-118.74 252.95-142.55 547.18-94.181 827.21 21.385-101.3 54.825-202.16 105.29-299.21zm1263.6 1007.1c7.1696 11.3 16.661 18.709 29.078 20.419 0 0 0.7613 0.081 2.0916 0.081 5.7989 0 22.49-1.5806 35.83-18.5l-67-2.0004zm-1022.5 351.29c-9.3798 57.711-23.886 110.87-41.773 159.53 41.447 56.801 99.272 127.99 174.54 200.14-16.537-66.866-52.954-183.22-132.77-359.67" fill="url(#linearGradient6842)" fill-rule="evenodd"/></g><g><path d="m512.39 3064.2c-2.969 12.62 14.807 21.016 25.692 12.19 110.53-89.627 376.1-358.03 309.92-827.07-83.039-588.48 58.925-803.22 235.64-934.2 0 0-242.69 61.601-395.37 279.49-374.88 534.98-123.1 1244.9-175.87 1469.6" fill="#bdd0fb"/><path d="m659.4 2112.3c2.5364 57.86 4.5621 115.55 4.0892 173.29-0.1973 66.401-3.6646 132.78-8.5731 199.08-5.2047 66.282-12.809 132.49-22.73 198.42-9.5241 66.032-21.848 131.73-35.676 197.23-0.3767 1.821 0.951 3.5912 3.0424 3.996 0.3011 0.05 0.6018 0.1009 0.8978 0.1009 1.8235 0 3.4698-1.0874 3.8922-2.706 17.23-65.045 31.559-130.7 43.862-196.63 11.937-66.006 21.461-132.34 28.635-198.91 1.7577-16.651 3.361-33.312 4.8557-49.98 1.3074-16.671 2.653-33.35 3.6216-50.051 2.1622-33.39 3.634-66.82 4.4078-100.26 1.3-49.479 0.8524-98.979-0.2579-148.35-11.173-6.9798-21.286-15.48-30.067-25.239" fill="#cbddfc"/><path d="m798.72 1655.6c-13.553-14.38-37.386-10.24-45.537 7.759-44.988 99.31-146.78 391.6 21.34 728.34 141.97 284.36 191.93 452.03 209.33 529.72 3.6822 16.438 26.198 18.613 32.988 3.2116 74.979-169.95 272.95-748-218.12-1269" fill="#91b3fa"/><path d="m826.27 2160.5c27.965 130.3 68.631 271.92 127.76 405.08 1.277 2.8829 4.0994 4.5774 7.0557 4.5774 1.0471 0 2.1093-0.2024 3.126-0.6576 3.8946-1.745 5.6472-6.2972 3.9223-10.192-58.103-130.83-98.266-270.01-126.01-398.32z" fill="#c0d6fc"/></g><g clip-path="url(#clipPath6860)"><path d="m3020 689.94c-35.684 362.85-124.98 1264.1-144.48 1395.8-24.48 165.56-225.74 129.02-225.74 129.02l-43.093-1675.4h280.59c37.732 0 73.669 16.39 98.959 45.119 25.264 28.729 37.555 66.929 33.762 105.46" fill="url(#linearGradient6866)" fill-rule="evenodd"/></g><g clip-path="url(#clipPath6876)"><path d="m2720.7 455c-0.7081 0-1.4161 0.01-2.1242 0.0202l-1968.7 42.1c-73.396 1.5704-134.1 53.141-150.78 121.76 7.0333-4.6508 15.44-7.4401 24.574-7.5793l2064.1-31.89h0.6069c19.549 0 36.139 14.61 38.567 34.23 40.767 325.53 9.61 1241.3 1.2645 1463.7-1.0117 26.65-22.736 47.58-49.012 47.58-0.5309 0-1.0621-0.01-1.593-0.03l-638.72-20.54c-32.482 39.902-81.971 65.29-137.18 65.29-1.08 0-2.1597-0.01-3.2499-0.028-14.041-0.2503-27.659-2.1319-40.699-5.4601 2.9084 10.599 6.6892 19.979 11.52 27.609l67 2.0004c1.1608-1.4794 2.2986-3.0702 3.3988-4.7899 2.8805-0.05 5.771-0.071 8.649-0.071 14.011 0 28.062 0.4805 42.001 1.1988-0.7183 1.7223-1.4794 3.4622-2.2686 5.2123l729.07 21.8c1.0369 0.03 2.0738 0.048 3.1107 0.048 56.826 0 103.21-46.568 103.06-104.25l-3.9704-1312.5-0.7337-247.05c-0.1768-54.482-44.055-98.362-97.82-98.362zm-2123.4 335.89 8.2851 393.7 11.11 528 6.4817 308.04c0.7412 35.269 14.312 67.351 36.208 91.69 8.7806 9.7594 18.894 18.259 30.067 25.239 0.8852 0.5513 1.7779 1.0902 2.6782 1.6313 19.645 11.648 42.375 18.608 66.681 19.329l67.443 2.0205 15.859 0.4805 245.6 7.3392 711.7 21.291c-4.7015-18.6-7.6907-38.971-9.4711-59.701-12.329-10.04-23.272-21.709-32.5-34.66l-1047-33.671c-23.952-0.7688-42.492-21.289-41.166-45.41 24.303-441.75-34.966-958.93-71.998-1225.3" fill="url(#linearGradient6882)" fill-rule="evenodd"/></g><g clip-path="url(#clipPath6892)"><path d="m2688.3 579.41h-0.6069l-2064.1 31.89c-9.1346 0.1392-17.541 2.9285-24.574 7.5793-14.552 9.6304-23.216 27.27-20.28 46.101 4.7619 30.53 11.203 73.33 18.512 125.91 37.032 266.39 96.301 783.57 71.998 1225.3-1.3252 24.121 17.214 44.641 41.166 45.41l1047 33.671c-7.9106-11.1-14.559-23.14-19.759-35.919l-980.79-31.541c-23.051-0.7385-40.893-20.48-39.616-43.69 28.006-509.04-59.297-1122.1-87.103-1300.3-4.193-26.88 16.185-51.242 43.167-51.662l1986.3-30.689c0.1769-0.01 0.3792-0.01 0.5816-0.01 18.816 0 34.774 14.071 37.125 32.94 39.224 313.28 9.256 1194.6 1.1886 1408.6-0.961 25.638-21.876 45.779-47.165 45.779-0.4805 0-1.0114-0.01-1.5174-0.02l-589.04-18.95c-6.0013 12.41-13.421 24-22.03 34.568l638.72 20.54c0.5309 0.023 1.0621 0.03 1.593 0.03 26.276 0 48-20.93 49.012-47.58 8.3455-222.38 39.502-1138.2-1.2645-1463.7-2.4279-19.62-19.018-34.23-38.567-34.23" fill="url(#linearGradient6898)" fill-rule="evenodd"/></g><path d="m673.36 632.13c-26.982 0.4198-47.36 24.781-43.167 51.662 27.806 178.23 115.11 791.31 87.103 1300.3-1.277 23.211 16.565 42.952 39.616 43.69l1893 60.88c25.947 0.8294 47.696-19.6 48.683-45.759 8.0674-214.01 38.036-1095.3-1.1886-1408.6-2.3774-19.058-18.639-33.228-37.707-32.93z" fill="#bdd0fb"/><g fill="#edf2fe"><path d="m2011.1 1527.8h-0.22l-139.83 0.8017c-20.818 0.119-37.5 17.389-37.057 38.369l2.8883 137.44c0.4198 19.8 16.001 35.871 35.62 36.751l139.98 6.2493c0.5689 0.03 1.1305 0.041 1.6895 0.041 20.76 0 37.669-17.23 37.229-38.38l-3.0399-144.49c-0.4297-20.452-17-36.782-37.259-36.782"/><path d="m1488 1529h-0.2098l-139.83 0.7991c-20.821 0.1114-37.502 17.392-37.062 38.372l2.4604 117.03c0.4198 19.92 16.18 36.04 35.929 36.761l58.422 2.109c6.0191-67.64 54.34-122.77 117.96-139.33l-0.3994-18.962c-0.43-20.449-17-36.779-37.27-36.779"/><path d="m1467.4 705.62c-0.5792 0-1.1707 0.01-1.7499 0.0303l-132.93 5.6801c-22.108 0.9383-39.419 19.529-38.949 41.839l2.6402 125.58c0.4706 22.321 18.56 40.14 40.661 40.14 0.129 0 0.2682-0.0102 0.4099-0.0102l133.02-1.2975c22.64-0.2199 40.75-19.05 40.272-41.872l-2.7314-129.95c-0.4805-22.389-18.638-40.14-40.641-40.14"/><path d="m1206.7 716.74c-0.5715 0-1.1506 0.0102-1.7297 0.0406l-134.32 5.7279c-21.732 0.9307-38.741 19.202-38.281 41.121l2.4911 118.37c0.4601 21.939 18.249 39.449 39.97 39.449h0.3895l134.42-1.3201c22.26-0.2199 40.052-18.719 39.581-41.151l-2.5821-122.79c-0.4604-22-18.32-39.45-39.938-39.45"/><path d="m1215.3 1268.1c-0.4706 0-0.951 0.01-1.429 0.02l-128.26 4.2386c-23.562 0.7688-42.112 20.51-41.612 44.27l2.0208 96.321c0.5006 23.56 19.569 42.408 42.939 42.459l128.36 0.2301h0.078c24.111 0 43.521-19.979 43.01-44.29l-2.1192-100.8c-0.5008-23.661-19.68-42.448-42.99-42.448"/><path d="m1212.2 978.15h-0.01l-134.44 0.0202c-22.412 0-40.441 18.57-39.97 41.159l3.2701 155.48c0.498 23.658 19.69 42.448 43 42.448 0.4703 0 0.9507-0.01 1.4287-0.02l131.27-4.3296c21.888-0.7283 39.128-19.068 38.658-41.139l-3.2394-154.17c-0.4603-21.918-18.219-39.449-39.97-39.449"/><path d="m1749.5 1527.5h-0.2126l-139.84 0.7892c-20.808 0.1213-37.5 17.399-37.049 38.38l0.2704 13.1c83.83 3.6315 150.31 72.04 151.71 155.76l26.602 0.961c0.4476 0.02 0.9105 0.03 1.3581 0.03 20.791 0 37.692-17.25 37.242-38.38l-2.8097-133.86c-0.43-20.45-17.002-36.779-37.269-36.779"/><path d="m1473.1 978.12-133.05 0.0201c-22.801 0-41.151 18.899-40.661 41.88l3.1207 148.56c0.468 22.371 18.611 40.13 40.638 40.13 0.4527 0 0.9131 0 1.3607-0.018l132.96-4.3903c22.27-0.731 39.811-19.392 39.331-41.85l-3.0296-144.19c-0.4706-22.3-18.54-40.14-40.671-40.14"/><path d="m1750 1250.4c-0.339 0-0.6905 0.01-1.0293 0.02l-152.6 5.0301c-16.891 0.5615-30.188 14.711-29.839 31.751l2.9185 138.64c0.3617 16.898 14.031 30.418 30.79 30.449l152.71 0.2707h0.058c17.29 0 31.21-14.319 30.841-31.761l-3.0297-143.95c-0.3515-16.969-14.112-30.451-30.82-30.451"/><path d="m2003.6 1242c-0.4198 0-0.8598 0.01-1.2898 0.02l-136.75 4.509c-21.231 0.7005-37.96 18.489-37.502 39.9l2.7819 132.04c0.4399 21.241 17.619 38.23 38.688 38.271l136.86 0.2503h0.071c21.731 0 39.229-18.011 38.769-39.92l-2.8777-136.81c-0.4502-21.332-17.741-38.261-38.752-38.261"/><path d="m1488.6 1259c-0.3413 0-0.6803 0-1.0292 0.01l-152.59 5.0403c-16.901 0.5587-30.201 14.708-29.84 31.749l2.7187 129.54c0.3592 16.888 14.031 30.408 30.8 30.439l152.7 0.2809h0.061c17.29 0 31.21-14.329 30.851-31.761l-2.84-134.86c-0.3617-16.969-14.122-30.439-30.831-30.439"/><path d="m1734.6 978.09-133.04 0.0201c-22.801 0-41.151 18.901-40.671 41.88l2.9488 139.96c0.4706 22.371 18.611 40.14 40.641 40.14 0.4502 0 0.9105-0.01 1.3607-0.02l132.95-4.3903c22.273-0.7285 39.811-19.4 39.341-41.86l-2.8502-135.59c-0.4703-22.298-18.54-40.14-40.679-40.14"/><path d="m2000.7 978.06-142.36 0.0179c-20.191 0-36.44 16.732-36.01 37.082l2.9588 140.91c0.4198 19.809 16.482 35.55 35.99 35.55 0.3997 0 0.8016-0.01 1.2013-0.02l142.27-4.7013c19.718-0.6499 35.249-17.169 34.829-37.06l-2.8605-136.23c-0.4198-19.751-16.42-35.55-36.02-35.55"/><path d="m1212.4 1532.4h-0.301l-106.13 0.6094c-31.549 0.1695-56.828 26.359-56.168 58.159l1.558 73.709c0.5615 27.032 21.962 48.921 48.761 49.892l118.11 4.2687c0.5689 0.02 1.1304 0.03 1.6894 0.03 25.679 0 46.551-21.299 45.999-47.4l-1.8586-88.269c-0.5919-28.36-23.57-50.999-51.659-50.999"/><path d="m945.42 727.89c-0.5714 0-1.1508 0.01-1.7274 0.0377l-49.636 2.122c-34.819 1.4794-62.096 25.99-61.482 55.23l1.7957 85.34c0.6169 29.268 28.936 52.56 63.725 52.56 0.2528 0 0.5082-0.0102 0.7662-0.0102l46.235-0.4501c23.954-0.2302 43.106-20.151 42.598-44.29l-2.3368-111.09c-0.4626-21.999-18.315-39.449-39.937-39.449"/><path d="m2471.8 662.79c-1.0999 0-2.2102 0.0202-3.3205 0.0706l-90.519 3.8594c-22.121 0.9408-39.45 19.549-38.982 41.88l3.3709 159.88c0.4706 22.348 18.581 40.178 40.699 40.178h0.4023l90.919-0.8904c35.83-0.3591 64.64-25.239 64.008-55.308l-2.9084-137.11c-0.6069-29.379-29.06-52.56-63.67-52.56"/><path d="m947.66 978.18-45.132 0.01c-36.121 0-65.374 24.989-64.737 55.309l2.8856 137.11c0.6171 29.351 29.032 52.56 63.694 52.56 0.8524 0 1.7121-0.01 2.5722-0.041l45.425-1.4995c23.557-0.779 42.11-20.52 41.609-44.27l-3.2979-156.72c-0.4955-23.6-19.61-42.459-43.02-42.459"/><path d="m964.23 1276.3c-0.3617 0-0.7209 0.01-1.0849 0.018l-56.813 1.8715c-35.122 1.1582-62.842 25.78-62.223 55.27l1.4542 68.98c0.612 29.199 28.807 52.499 63.601 52.559l57.37 0.099h0.0606c18.231 0 32.914-15.108 32.53-33.499l-2.3822-113.19c-0.377-17.897-14.891-32.108-32.512-32.108"/><path d="m2489.9 1525.1h-0.4399l-93.891 0.5287c-21.651 0.1315-38.999 18.1-38.539 39.92l3.318 157.93c0.4326 20.72 16.83 37.5 37.371 38.24l91.19 3.2979c0.9408 0.03 1.8813 0.05 2.8196 0.05 35.901 0 65.323-24.87 64.691-55.308l-2.7819-132.1c-0.6069-29.27-28.919-52.57-63.738-52.56"/><path d="m1728.7 694.47c-0.5791 0-1.171 0.0102-1.7501 0.0304l-132.93 5.68c-22.111 0.9408-39.419 19.529-38.949 41.839l2.8273 134.17c0.4705 22.321 18.56 40.14 40.661 40.14h0.3997l133.02-1.3c22.65-0.2299 40.749-19.05 40.269-41.88l-2.9084-138.54c-0.4702-22.399-18.641-40.15-40.641-40.14"/><path d="m2483.6 1226.2c-0.8498 0-1.7096 0.02-2.5696 0.04l-92.79 3.0702c-21.228 0.7007-37.947 18.489-37.5 39.9l3.1612 150.24c0.4502 21.231 17.63 38.218 38.701 38.261l92.419 0.1692h0.1389c36.111 0 65.369-24.991 64.737-55.311l-2.6051-123.81c-0.6069-29.339-29.03-52.56-63.692-52.56"/><path d="m2478.4 978.01h-0.01l-96.93 0.0102c-20.191 0-36.44 16.739-36.01 37.09l2.6099 123.72c0.4096 19.81 16.479 35.54 35.99 35.54 0.3997 0 0.7991-0.01 1.2013-0.02l96.457-3.179c35.12-1.1608 62.835-25.783 62.228-55.27l-1.7955-85.33c-0.6324-29.24-28.901-52.56-63.74-52.56"/><path d="m2262.3 978.04-142.36 0.0103c-20.199 0-36.44 16.731-36.02 37.09l2.7918 132.31c0.4198 19.809 16.479 35.54 35.99 35.54 0.3997 0 0.7991 0 1.1988-0.018l142.26-4.6913c19.731-0.65 35.262-17.179 34.842-37.06l-2.6909-127.64c-0.4096-19.751-16.411-35.542-36.01-35.542"/><path d="m2251.3 672.17c-0.5891 0-1.1685 0.0102-1.76 0.0303l-132.86 5.6699c-22.128 0.951-39.45 19.549-38.979 41.88l3.1787 151.29c0.4706 22.351 18.581 40.17 40.701 40.17h0.3997l132.95-1.2999c22.67-0.22 40.79-19.061 40.309-41.91l-3.2701-155.66c-0.4805-22.409-18.651-40.17-40.671-40.17"/><path d="m969.63 1533.7h-0.1897l-55.638 0.3212c-35.957 0.21-64.946 25.138-64.309 55.309l1.3884 66.031c0.5942 28.34 27.24 51.288 60.971 52.509l58.932 2.1293c0.3972 0.02 0.7966 0.03 1.1937 0.03 18.145 0 32.889-15.06 32.51-33.499l-2.3292-110.72c-0.3819-17.849-14.842-32.11-32.53-32.11"/><path d="m1990 683.32c-0.5817 0-1.171 0.0102-1.7502 0.0306l-132.86 5.6698c-22.128 0.9508-39.449 19.559-38.979 41.88l2.9514 140.44c0.4981 23.59 19.61 42.411 42.96 42.411h0.4198l130.72-1.2795c22.67-0.2203 40.79-19.071 40.309-41.91l-3.1006-147.07c-0.4705-22.409-18.648-40.18-40.668-40.17"/><path d="m2271.1 1526.3h-0.2225l-136.83 0.779c-21.65 0.1213-39.009 18.1-38.549 39.922l3.0904 146.96c0.4399 20.72 16.83 37.5 37.378 38.24l136.95 4.9592c0.4808 0.02 0.9511 0.03 1.4191 0.03 21.633 0 39.201-17.94 38.741-39.92l-3.2091-152.71c-0.4502-21.271-17.69-38.261-38.769-38.261"/><path d="m2265 1233.4c-0.4274 0-0.8572 0-1.2897 0.02l-136.76 4.509c-21.231 0.7008-37.95 18.492-37.5 39.902l2.969 141.14c0.4501 21.241 17.632 38.231 38.701 38.261l136.86 0.2478h0.071c21.729 0 39.229-17.999 38.769-39.92l-3.0802-145.9c-0.4402-21.329-17.741-38.271-38.741-38.261"/></g><g fill="#fff"><path d="m898.63 1827 6.2994-46.538c2.0183-14.901 14.489-26.112 29.404-26.43l2.1801-0.05c16.744-0.3592 30.608 13.039 30.962 29.92l1.0012 47.64c0.392 18.459-15.427 33.049-33.635 31.031l-9.4838-1.0519c-16.954-1.8791-29.035-17.48-26.728-34.521"/><path d="m1112.9 1839 6.2998-46.538c2.0106-14.911 14.491-26.112 29.402-26.43l2.1802-0.051c16.749-0.3589 30.608 13.029 30.959 29.92l1.0091 47.641c0.3819 18.459-15.429 33.049-33.64 31.031l-9.4788-1.0522c-16.959-1.8789-29.04-17.49-26.731-34.52"/><path d="m1376.6 1835.3 6.2997-46.541c2.018-14.898 14.488-26.109 29.409-26.428l2.1799-0.051c16.739-0.3591 30.608 13.039 30.96 29.92l0.9989 47.638c0.3921 18.462-15.419 33.051-33.63 31.03l-9.4887-1.0494c-16.949-1.8791-29.03-17.48-26.729-34.521"/><path d="m1633.4 1846.9 6.3023-46.538c2.0183-14.911 14.488-26.122 29.41-26.433l2.1798-0.048c16.739-0.3615 30.601 13.029 30.96 29.91l0.999 47.638c0.3894 18.471-15.429 33.061-33.63 31.04l-9.4887-1.0497c-16.952-1.8788-29.04-17.49-26.731-34.52"/><path d="m1897.2 1880.7 6.3022-46.538c2.018-14.911 14.488-26.122 29.41-26.44l2.1798-0.041c16.739-0.3614 30.601 13.039 30.96 29.92l0.999 47.628c0.3895 18.471-15.429 33.061-33.628 31.04l-9.4913-1.0494c-16.952-1.8791-29.03-17.491-26.731-34.521"/><path d="m2176.7 1874.7 6.2997-46.538c2.0208-14.901 14.491-26.109 29.399-26.43l2.1801-0.051c16.749-0.3591 30.61 13.039 30.96 29.92l1.0114 47.641c0.3793 18.459-15.432 33.049-33.64 31.03l-9.4813-1.0519c-16.959-1.8791-29.04-17.48-26.729-34.521"/><path d="m2412.6 1879.7 6.2997-46.541c2.0208-14.901 14.488-26.109 29.409-26.43l2.1802-0.051c16.739-0.3591 30.6 13.039 30.959 29.92l1.0015 47.641c0.3895 18.461-15.422 33.051-33.63 31.03l-9.4912-1.0493c-16.949-1.8817-29.03-17.48-26.729-34.521"/></g><g clip-path="url(#clipPath6980)"><path d="m2318.6 1349.4c-0.5791 10.06-11.001 14.37-18.682 8.28-21.678-17.22-30.499-43.961-41.179-68.9-12.45-29.07-24.389-58.361-34.988-88.16-11.17-31.42-20.702-63.412-27.96-95.891-14.392 38.8-31.111 76.59-52.322 112.44-5.6296 9.519-21.529 3.9503-18.378-7.3491 18.338-65.731 40.908-130.12 58.189-196.18 6.0896-23.312 37.71-17.812 40.069 4.5876 6.431 61.181 21.092 119.71 41.89 177.49 9.8907 27.47 20.932 54.509 32.371 81.349 10.128 23.782 22.52 45.941 20.99 72.331" fill="url(#linearGradient6986)" fill-rule="evenodd"/></g><g clip-path="url(#clipPath6996)"><path d="m2348.3 1300.6c-18.858 3.5606-25.73-20.781-8.4288-28.448 114.45-50.762 129.41-193.8 46.73-280.41-38.24-40.062-88.982-71.16-137.02-97.891-48.731-27.1-103.13-47.81-159.68-42.09-131.08 13.28-148.9 147.77-109.71 251.55 37.689 99.818 118.42 176.88 217.26 213.82 12.761 4.7699 7.8222 25.72-5.2679 20.988-92.73-33.519-171.66-99.649-220.55-186.19-44.973-79.602-71.962-191.88-13.082-271.78 60.92-82.69 176.55-84.169 263.67-49.699 95.84 37.919 215.16 108.26 253.31 210.33 39.97 106.94-9.3597 237.59-127.23 259.82" fill="url(#linearGradient7002)" fill-rule="evenodd"/></g><g fill="#91b3fa"><path d="m2823.2 565.18c-2.7314 0-4.9569 2.2204-4.9821 4.972l-6.0188 878.14c-0.026 2.7692 2.1747 5.0201 4.9314 5.0403h0.025c2.7312 0 4.9315-2.2102 4.9567-4.972l6.0443-878.14c0-2.7593-2.2003-5.0202-4.9314-5.0403h-0.025z"/><path d="m2815.8 1645c-2.7312 0-4.9315 2.2179-4.9567 4.9797l-2.0991 306.69c-0.026 2.7717 2.1748 5.0224 4.9315 5.04h0.025c2.7312 0 4.9314-2.2204 4.957-4.9694l2.1242-306.69c0-2.7695-2.2002-5.0304-4.9569-5.0403l-0.025-0.01z"/><path d="m1004.5 1956c0-29.549-23.76-53.508-53.07-53.508-29.313 0-53.076 23.959-53.076 53.508 0 29.551 23.762 53.5 53.076 53.5 29.311 0 53.07-23.949 53.07-53.5"/><path d="m1439.4 1960.1c0-29.549-23.757-53.498-53.078-53.498-29.311 0-53.07 23.949-53.07 53.498 0 29.551 23.76 53.51 53.07 53.51 29.321 0 53.078-23.96 53.078-53.51"/><path d="m1878.3 1974.5c0-29.551-23.77-53.5-53.078-53.5-29.311 0-53.07 23.949-53.07 53.5 0 29.549 23.759 53.51 53.07 53.51 29.308 0 53.078-23.962 53.078-53.51"/><path d="m2313.2 1995.1c0-29.548-23.762-53.5-53.07-53.5-29.321 0-53.081 23.952-53.081 53.5 0 29.551 23.76 53.511 53.081 53.511 29.308 0 53.07-23.96 53.07-53.511"/></g><g clip-path="url(#clipPath7024)"><path d="m2421.7 2207.6c-18.75 40.188-55.129 86.63-121.23 74.898-89.311-15.849-80.892-207.01-73.702-284.61 1.6917-18.259 20.391-32.348 42.901-32.348 6.2493 0 12.21 2.1901 16.38 5.9684 4.1802 3.791 6.1682 8.8514 5.5105 13.902-7.721 58.66-24.142 227.57 41.619 236.61 0 0 16.699 2.4001 31.91-11.33 18.868 0.2602 37.74-1.7198 56.608-3.0881" fill="url(#linearGradient7030)" fill-rule="evenodd"/></g><g clip-path="url(#clipPath7040)"><path d="m1790 2129.9c1.7804 20.73 4.7696 41.101 9.4711 59.701 10.88 43.139 30.909 76.729 66.168 82.988 7.0912 1.262 13.841 1.8513 20.262 1.8513 54.709 0 85.679-42.78 102.14-79.2 0.7892-1.7501 1.5503-3.49 2.2686-5.2123-13.94-0.7183-27.991-1.1988-42.001-1.1988-2.878 0-5.7685 0.02-8.649 0.071-1.1002 1.7197-2.238 3.3105-3.3988 4.7899-13.34 16.919-30.032 18.5-35.83 18.5-1.3303 0-2.0916-0.081-2.0916-0.081-12.417-1.7095-21.908-9.1193-29.078-20.419-4.8303-7.63-8.6111-17.01-11.52-27.609-25.211-6.4312-48.21-18.272-67.741-34.182" fill="url(#linearGradient7046)" fill-rule="evenodd"/></g><g clip-path="url(#clipPath7056)"><path d="m1557.2 2175.8c-16.803 42.1-53.551 99.909-126.51 86.961-89.311-15.852-80.879-207.11-73.699-284.72 1.6892-18.259 20.388-32.399 42.899-32.399 6.2515 0 12.21 2.1597 16.38 5.938 4.1805 3.7809 6.1707 8.8311 5.5105 13.892-7.7207 58.649-24.139 227.79 41.619 236.82 0 0 25.431 2.2887 42.08-25.452 17.101-1.3402 34.601-2.0687 51.723-1.0391" fill="url(#linearGradient7062)" fill-rule="evenodd"/></g><g clip-path="url(#clipPath7072)"><path d="m995.87 2251.3c-89.313-15.849-80.889-207.22-73.699-284.82 1.6895-18.269 20.388-32.46 42.899-32.46 6.2515 0 12.205 2.1396 16.38 5.9205 4.1726 3.7783 6.1679 8.8186 5.5029 13.869-7.7159 58.66-24.131 227.99 41.619 237.02 0 0 23.56 2.7589 40.18-21.279 17.589-0.6423 35.17-3.022 52.759-2.931-17.179 41.819-53.92 97.411-125.64 84.68" fill="url(#linearGradient7078)" fill-rule="evenodd"/></g><g clip-path="url(#clipPath7088)"><path d="m2247.7 1600.2c0-11.072 0.7081-19.142 2.1294-24.202 1.429-5.0579 3.7984-7.5895 7.1192-7.5895 3.3205 0 5.7305 2.5316 7.2304 7.5895 1.4995 5.0604 2.2507 13.13 2.2507 24.202 0 11.08-0.7713 19.129-2.3091 24.149-1.5401 5.0198-3.9325 7.5313-7.172 7.5313-3.2499 0-5.5992-2.5115-7.0585-7.5313-1.4616-5.0199-2.1901-13.07-2.1901-24.149zm43.979 0.2378c0-18.009-2.9996-31.67-9.0108-40.99-5.9987-9.3294-14.66-13.99-25.96-13.99-11.858 0-20.53 4.5598-26.031 13.692-5.4879 9.1196-8.2395 22.72-8.2395 40.81 0 17.85 2.8299 31.501 8.4796 40.939 5.6523 9.4408 14.251 14.16 25.79 14.16 23.312 0 34.971-18.198 34.971-54.62zm-36.63 121.92-71.61-174.75h-24.551l71.38 174.75zm-107.42-52.352c0-11.079 0.7107-19.147 2.1419-24.21 1.4187-5.0578 3.7885-7.5892 7.109-7.5892s5.7282 2.5314 7.2303 7.5892c1.4998 5.0633 2.2482 13.131 2.2482 24.21 0 11.072-0.7688 19.142-2.3088 24.202-1.5401 5.0607-3.93 7.5895-7.1697 7.5895-3.3205 0-5.6903-2.5288-7.109-7.5895-1.4312-5.0604-2.1419-13.13-2.1419-24.202zm43.992 0.2302c0-17.999-2.9895-31.688-8.9502-41.048-5.9709-9.3699-14.65-14.051-26.031-14.051-11.78 0-20.431 4.5799-25.96 13.75-5.5411 9.1601-8.3001 22.791-8.3001 40.881 0 36.728 11.421 55.099 34.26 55.099 23.32 0 34.981-18.209 34.981-54.631" fill="url(#linearGradient7094)" fill-rule="evenodd"/></g><g clip-path="url(#clipPath7104)"><path d="m1188.4 1322.6c0-11.082 0.7081-19.152 2.1393-24.21 1.4187-5.0607 3.7885-7.592 7.109-7.592s5.7308 2.5313 7.2303 7.592c1.4998 5.0579 2.2507 13.128 2.2507 24.21 0 11.07-0.7713 19.119-2.3113 24.139-1.5401 5.0198-3.9275 7.5285-7.1697 7.5285-3.2397 0-5.5891-2.5087-7.0481-7.5285-1.4695-5.0202-2.2002-13.07-2.2002-24.139zm43.989 0.2404c0-18.011-3.0095-31.68-9.0107-41-6.0089-9.3217-14.668-13.993-25.97-13.993-11.848 0-20.53 4.5623-26.018 13.692-5.5006 9.1193-8.242 22.73-8.242 40.82 0 17.85 2.8224 31.488 8.4722 40.929 5.6497 9.4507 14.248 14.17 25.788 14.17 23.32 0 34.981-18.209 34.981-54.618zm-36.64 121.91-71.61-174.74h-24.539l71.37 174.74zm-107.42-52.35c0-11.082 0.7208-19.152 2.1396-24.2 1.4213-5.0706 3.7907-7.592 7.1115-7.592 3.3205 0 5.7305 2.5214 7.2304 7.592 1.4995 5.0476 2.2583 13.118 2.2583 24.2 0 11.069-0.769 19.139-2.3091 24.2-1.5503 5.0604-3.9401 7.5895-7.1796 7.5895-3.3208 0-5.6902-2.5291-7.1115-7.5895-1.4188-5.0604-2.1396-13.13-2.1396-24.2zm43.991 0.2401c0-18.011-2.9815-31.7-8.9498-41.06-5.9709-9.3597-14.64-14.041-26.021-14.041-11.78 0-20.439 4.5799-25.97 13.74-5.5307 9.1598-8.2999 22.791-8.2999 40.881 0 36.731 11.421 55.099 34.27 55.099 23.31 0 34.97-18.209 34.97-54.618" fill="url(#linearGradient7110)" fill-rule="evenodd"/></g><g clip-path="url(#clipPath7120)"><path d="m3032.9 1939.5c-0.4047 0.1491-220.15 384.97-249.84 421.18-4.9822 6.09-12.721 9.2004-20.535 8.2599l-61.353-7.3089-72.05-155.87 120.05 69.908c-11.886-82.148 142.3-204.23 195.21-248.78 5.3614-4.5193 5.8167-12.62 0.9609-17.69l-21.117-22.101c34.672-35.137 74.655-57.698 119.8-68.128z" fill="url(#linearGradient7126)" fill-rule="evenodd"/></g><g clip-path="url(#clipPath7136)"><path d="m2936.4 1999s-13.479-4.3498-18.032-16.35c-2.2002-5.7407 0.1517-12.25 5.1591-15.821 22.179-15.9 95.367-67.22 129.15-77.268 2.7567-0.8323 5.3869 1.6792 4.7797 4.4989-1.745 7.8397-7.3337 23.509-25.416 46.45l1.6439-3.28c2.0483-4.1502-2.4784-8.4696-6.5248-6.1886-22.584 12.749-68.586 40.658-90.765 67.959" fill="url(#linearGradient7142)" fill-rule="evenodd"/></g><g clip-path="url(#clipPath7152)"><path d="m2947.3 1845.1c-0.3792 0.2404-33.332 79.67-33.711 79.9-30.221 184.04-103.97 341.66-125.72 383.13-3.6672 6.98-10.622 11.58-18.462 12.25l-61.53 5.2577-102.12-138.07 131.71 44.171c-28.249-78.049 98.048-228.81 140.81-283.14 4.3498-5.5083 3.1357-13.53-2.6302-17.521l-25.163-17.369c26.858-41.42 61.454-71.61 103.56-90.97z" fill="url(#linearGradient7158)" fill-rule="evenodd"/></g><g clip-path="url(#clipPath7168)"><path d="m2864.9 1922.9s-14.086-1.54-20.99-12.372c-3.2877-5.1794-2.3012-12.018 1.8714-16.54 18.512-20.06 79.789-85.13 110.84-101.81 2.5291-1.3706 5.6143 0.559 5.5891 3.4395-0.1012 8.0397-2.4279 24.521-15.477 50.63l0.9357-3.5305c1.1633-4.4788-4.1474-7.7993-7.6374-4.7492-19.524 17.06-58.95 53.7-75.136 84.93" fill="url(#linearGradient7174)" fill-rule="evenodd"/></g><g clip-path="url(#clipPath7184)"><path d="m2419.8 2354.7s-55.68-82.799-60.25-120.58c-4.5598-37.77 15.399-50.83 73.669-55.65 173.4-14.329 258.88 37.641 258.88 37.641 11.861 75.629 20.308 94.869 119.39 135.99 0 0-125.31-9.9391-150.55-0.1596-25.214 9.7898-241.14 2.7593-241.14 2.7593" fill="url(#linearGradient7190)" fill-rule="evenodd"/></g><g clip-path="url(#clipPath7200)"><path d="m2641.8 2818.6s-38.769 45.876-79.991-10.419c-7.4605-10.192-36.147-1.7954-46.657-23.115-5.4297-11.026-17.159-17.273-29.23-15.047-30.089 5.5383-79.26 5.9935-103.53-41.121-18.53-35.987-4.231-57.054 14.299-69.066 13.601-8.8008 18.459-26.706 10.23-40.691-7.8906-13.378-9.37-31.536 11.001-53.361 45.658-48.948 136.05 31.03 136.05 31.03l71.772 169.59z" fill="url(#linearGradient7206)" fill-rule="evenodd"/></g><g clip-path="url(#clipPath7216)"><path d="m2570.3 2365.7s64.843 61.73 96.733 102.62c17.273 22.101 22.685 51.199 14.693 78.089-14.567 49.062-40.438 99.92-42.816 107.84-3.6162 12.114-76.299 11.608-76.299 11.608s-143.06-92.838-199.26-250.09l63.12-19.65s37.35 62.66 74.251 102.5c0 0-63.859-84.361-66.11-118.89z" fill="url(#linearGradient7222)" fill-rule="evenodd"/></g><g clip-path="url(#clipPath7232)"><path d="m2693.9 2341.3-48.708 53.01-56.244-15.151s-65.596-10.159-103.14 0l-37.54 10.161-84.832 26.41-13.33-37.651c-3.3786-9.5596 0.023-20.179 8.2825-26.051 7.3389-5.22 15.95-10.948 21.428-13.348 11.17-4.8807 257.36-1.5401 257.36-1.5401z" fill="url(#linearGradient7238)" fill-rule="evenodd"/></g><g clip-path="url(#clipPath7248)"><path d="m2612.6 2753.2-48.86-90.84c3.2369-19.827 53.184-20.384 60.898-8.5479 0.7841 1.2138 1.2394 2.6048 1.5174 3.9957l29.235 60.721c1.2645 5.9176-14.972 25.846-20.308 28.704l-19.422 10.344c-7.4858 3.9705 23.722 4.2738-3.06-4.3752" fill="url(#linearGradient7254)" fill-rule="evenodd"/></g><g clip-path="url(#clipPath7264)"><path d="m2711.5 2774.5s5.5131-30.676-18.613-69.724c-24.127-39.022-48.152-37.252-60.341-23.317-12.215 13.909-26.832 37.075-20.181 75.995 6.6512 38.946 90.79 56.194 99.136 17.045" fill="url(#linearGradient7270)" fill-rule="evenodd"/></g><g clip-path="url(#clipPath7280)"><path d="m2641.6 2753.3s39.047 51.313 69.041 6.5753l-0.506-15.452s38.997 1.8462 34.774 37.783c-4.2233 35.937-36.063 60.493-80.219 48.228-44.13-12.291-69.926-26.276-74.908-56.927-4.9819-30.651 20.03-25.644 20.03-25.644s9.5595 21.167 21.117 22.609c11.532 1.4414 7.3593-15.3 7.3593-15.3z" fill="url(#linearGradient7286)" fill-rule="evenodd"/></g><g clip-path="url(#clipPath7296)"><path d="m2632.6 2754.6s20.232 26.276 1.821 31.713c-18.411 5.4627-17.728-25.72-16.54-37.328z" fill="url(#linearGradient7302)" fill-rule="evenodd"/></g><g clip-path="url(#clipPath7312)"><path d="m2532.6 2320.3c0.1772-0.01 0.3541-0.01 0.5312-0.01l224.07 0.2404c5.5383 0.01 10.014 4.4988 10.014 10.04 0 5.5383-4.5267 10.118-10.04 10.02l-224.07-0.2503c-5.5386 0-10.028-4.4991-10.017-10.03 0-5.3716 4.2182-9.7517 9.5113-10.01" fill="url(#linearGradient7318)" fill-rule="evenodd"/></g><g clip-path="url(#clipPath7328)"><path d="m2958.6 2523.8h-186.59c-13.757 0-26.301-7.9486-32.168-20.399l-86.263-182.92h231.88c8.8767 0 16.843 5.4195 20.105 13.672l66.917 169.27c3.8441 9.7796-3.3636 20.379-13.884 20.379" fill="url(#linearGradient7334)" fill-rule="evenodd"/></g><g clip-path="url(#clipPath7344)"><path d="m2827.2 2430c-4.0462-12.571-1.0622-24.771 6.6764-27.262 7.7389-2.4783 17.273 5.6801 21.319 18.252 4.0462 12.559 1.0621 24.759-6.6764 27.25-7.7389 2.4885-17.273-5.6801-21.319-18.239" fill="url(#linearGradient7350)" fill-rule="evenodd"/></g><g clip-path="url(#clipPath7360)"><path d="m1901.5 1815.9c-96.212 0-175.04 77.101-176.79 173.69-0.44 24.69 4.2006 48.291 12.961 69.812 5.1996 12.779 11.848 24.819 19.759 35.919 9.2282 12.951 20.171 24.619 32.5 34.66 19.531 15.91 42.53 27.75 67.741 34.182 13.039 3.3282 26.658 5.2098 40.699 5.4601 1.0902 0.018 2.1699 0.028 3.2499 0.028 55.21 0 104.7-25.388 137.18-65.29 8.6089-10.569 16.029-22.159 22.03-34.568 10.829-22.351 17.101-47.36 17.579-73.831 1.3808-76.8-46.399-143.05-114.37-168.71-16.14-6.0899-33.41-9.8883-51.429-11.009-2.5996-0.1619-5.2299-0.2605-7.8599-0.3112-1.0902-0.02-2.1699-0.03-3.2499-0.03zm0.1191 347.87c-1.0395 0-2.0892-0.01-3.1385-0.028-94.422-1.7019-169.59-79.632-167.88-174.05 1.6792-93.37 77.9-167.91 170.9-167.91 1.0395 0 2.0892 0.01 3.1411 0.03 94.419 1.6996 169.59 79.62 167.89 174.05-1.6891 93.37-77.9 167.91-170.91 167.91" fill="url(#linearGradient7366)" fill-rule="evenodd"/></g><g clip-path="url(#clipPath7376)"><path d="m1901.5 1821.7c-93 0-169.22 74.542-170.9 167.91-1.7096 94.419 73.459 172.35 167.88 174.05 1.0493 0.018 2.099 0.028 3.1385 0.028 93.01 0 169.22-74.539 170.91-167.91 1.6997-94.432-73.469-172.35-167.89-174.05-1.0519-0.02-2.1016-0.03-3.1411-0.03zm3.8999 312.06c-0.8801 0-1.7705-0.01-2.6606-0.018-79.91-1.4414-143.53-67.4-142.09-147.31 1.4315-79.028 65.94-142.12 144.65-142.12 0.8875 0 1.7677 0.01 2.6577 0.02 79.921 1.4491 143.54 67.4 142.09 147.32-1.4187 79.02-65.93 142.11-144.65 142.11zm-3.8012 22.5c-0.999 0-1.9877-0.01-2.9892-0.028-62.099-1.1203-117.45-36.592-144.46-92.58-1.3709-2.84-0.1798-6.2617 2.6705-7.63 0.7991-0.3921 1.6387-0.5715 2.4783-0.5715h0.1012c2.0889 0.041 4.0793 1.2317 5.0505 3.242 25.12 52.069 76.61 85.06 134.37 86.099 0.9207 0.02 1.8513 0.03 2.7694 0.03 8.2999 0 16.61-0.6701 24.721-1.9902 0.3212-0.061 0.65-0.081 0.9712-0.081 2.7388 0 5.1386 2.0004 5.5989 4.7999 0.5009 3.1107-1.6109 6.0494-4.7191 6.5602-8.7199 1.4315-17.639 2.1495-26.562 2.1495" fill="url(#linearGradient7382)" fill-rule="evenodd"/></g><g clip-path="url(#clipPath7392)"><path d="m1759.3 2055.5c-0.8396 0-1.6792 0.1794-2.4783 0.5715-2.8503 1.3683-4.0414 4.79-2.6705 7.63 27.009 55.989 82.361 91.46 144.46 92.58 1.0015 0.018 1.9902 0.028 2.9892 0.028 8.9223 0 17.842-0.718 26.562-2.1495 3.1082-0.5108 5.22-3.4495 4.7191-6.5602-0.4603-2.7995-2.8601-4.7999-5.5989-4.7999-0.3212 0-0.65 0.02-0.9712 0.081-8.1105 1.3201-16.421 1.9902-24.721 1.9902-0.9181 0-1.8487-0.01-2.7694-0.03-57.759-1.0394-109.25-34.03-134.37-86.099-0.9712-2.0103-2.9616-3.2015-5.0505-3.242h-0.1012" fill="url(#linearGradient7398)" fill-rule="evenodd"/></g><g clip-path="url(#clipPath7408)"><path d="m1905.3 1844.4c-78.712 0-143.22 63.09-144.65 142.12-1.4388 79.913 62.18 145.87 142.09 147.31 0.8901 0.01 1.7805 0.018 2.6606 0.018 78.719 0 143.23-63.088 144.65-142.11 1.4491-79.921-62.17-145.87-142.09-147.32-0.89-0.01-1.7702-0.02-2.6577-0.02" fill="url(#linearGradient7414)" fill-rule="evenodd"/></g><g clip-path="url(#clipPath7424)"><path d="m1893.1 1881.3-0.2781 15.738c-16.421 0.3617-32.73 3.9427-44.351 8.7806-4.1502 1.7297-6.33 6.3122-5.22 10.67l3.7304 14.731c1.3706 5.4094 7.1697 8.3002 12.349 6.2388 11.53-4.5898 25.72-8.128 40.942-7.8599 15.808 0.2908 27.498 5.8621 27.3 16.84-0.1721 9.9212-9.3926 15.652-31.47 21.14-31.501 8.0119-54.252 21.271-54.75 48.872-0.4527 24.908 17.43 44.26 48.948 49.919l-0.2809 15.748c-0.088 5.0607 3.9401 9.241 9.0107 9.3422l9.2512 0.1593c5.0604 0.091 9.2381-3.9402 9.3294-9.0108l0.2602-14.129c15.199-0.339 26.299-2.7312 35.12-5.6599 4.5295-1.4896 7.0685-6.2895 5.9103-10.91l-3.4393-13.631c-1.3201-5.2577-6.8613-8.2193-11.962-6.3983-8.1281 2.9109-19.61 5.8898-34.45 5.6194-18.76-0.339-23.97-8.2091-23.848-15.169 0.1593-8.5708 11.509-14.271 36.028-21.332 35.021-9.8201 49.75-24.02 50.21-50.01 0.4298-23.848-16.858-45.6-51.06-51.578l0.3212-17.622c0.091-5.0578-3.9402-9.2383-9.0108-9.3293l-9.2508-0.1693c-5.0582-0.089-9.2486 3.9399-9.3396 9.0105" fill="url(#linearGradient7430)" fill-rule="evenodd"/></g><g clip-path="url(#clipPath7440)"><path d="m2052.8 2506.9c-143.21 0-260.58 114.78-263.17 258.57-2.6303 145.39 113.12 265.39 258.52 267.99 1.6109 0.051 3.2295 0.051 4.8404 0.051 143.21 0 260.58-114.79 263.17-258.56 2.62-145.39-113.12-265.39-258.52-268.02-1.6186-0.018-3.2295-0.038-4.8379-0.038zm0.1896 517.87c-1.5604 0-3.1206-0.025-4.6913-0.051-140.56-2.5288-252.45-118.53-249.92-259.09 2.5112-139.02 115.97-249.97 254.42-249.97 1.5602 0 3.1181 0.013 4.6786 0.04 140.57 2.5316 252.46 118.55 249.93 259.11-2.5087 138.99-115.97 249.96-254.42 249.96" fill="url(#linearGradient7446)" fill-rule="evenodd"/></g><g clip-path="url(#clipPath7456)"><path d="m2052.8 2515.7c-138.45 0-251.91 110.95-254.42 249.97-2.5291 140.56 109.36 256.56 249.92 259.09 1.5707 0.025 3.1309 0.051 4.6913 0.051 138.45 0 251.91-110.97 254.42-249.96 2.5316-140.56-109.36-256.58-249.93-259.11-1.5605-0.028-3.1184-0.04-4.6786-0.04zm5.819 464.55c-1.3201 0-2.6402 0-3.9603-0.025-118.98-2.1495-213.68-100.32-211.54-219.31 2.1319-117.62 98.162-211.55 215.34-211.55 1.3203 0 2.6404 0 3.9605 0.025 118.97 2.1495 213.68 100.32 211.53 219.31-2.1192 117.65-98.149 211.55-215.33 211.55zm-5.6801 29.867c-1.459 0-2.9106 0-4.3699-0.025-91.068-1.6438-172.25-53.665-211.86-135.78-1.171-2.4278-0.1491-5.3362 2.2785-6.5247 0.6905-0.3289 1.4113-0.4805 2.1319-0.4805h0.078c1.7904 0.025 3.49 1.0369 4.322 2.7564 37.99 78.778 115.86 128.67 203.23 130.24 1.391 0.025 2.7896 0.05 4.1806 0.05 12.561 0 25.12-1.0114 37.391-3.0348 0.2809-0.05 0.5589-0.076 0.8396-0.076 2.3394 0 4.3903 1.7198 4.7798 4.1222 0.43 2.6555-1.3706 5.1843-4.0388 5.6143-12.791 2.099-25.882 3.136-38.961 3.136" fill="url(#linearGradient7462)" fill-rule="evenodd"/></g><g clip-path="url(#clipPath7472)"><path d="m1841.1 2867.3c-0.7206 0-1.4414 0.1516-2.1319 0.4805-2.4276 1.1885-3.4495 4.0969-2.2785 6.5247 39.611 82.116 120.79 134.14 211.86 135.78 1.4593 0.025 2.9109 0.025 4.3699 0.025 13.08 0 26.17-1.037 38.961-3.136 2.6682-0.43 4.4688-2.9588 4.0388-5.6143-0.3895-2.4024-2.4404-4.1222-4.7798-4.1222-0.2807 0-0.5587 0.025-0.8396 0.076-12.271 2.0234-24.829 3.0348-37.391 3.0348-1.391 0-2.7896-0.025-4.1806-0.05-87.368-1.5678-165.24-51.464-203.23-130.24-0.832-1.7195-2.5316-2.7312-4.322-2.7564h-0.078" fill="url(#linearGradient7478)" fill-rule="evenodd"/></g><g clip-path="url(#clipPath7488)"><path d="m2058.4 2549.4c-117.18 0-213.21 93.926-215.34 211.55-2.1393 118.99 92.56 217.16 211.54 219.31 1.3201 0.025 2.6402 0.025 3.9603 0.025 117.18 0 213.21-93.9 215.33-211.55 2.152-118.99-92.558-217.16-211.53-219.31-1.3201-0.025-2.6402-0.025-3.9605-0.025" fill="url(#linearGradient7494)" fill-rule="evenodd"/></g><g clip-path="url(#clipPath7504)"><path d="m2040.3 2604.3-0.4297 23.443c-24.44 0.5565-48.711 5.8672-66.011 13.075-6.1784 2.5796-9.428 9.408-7.7791 15.882l5.5613 21.952c2.0384 8.0422 10.67 12.341 18.378 9.2812 17.162-6.8533 38.281-12.114 60.951-11.709 23.53 0.43 40.941 8.7251 40.641 25.088-0.2605 14.744-13.98 23.266-46.842 31.46-46.897 11.912-80.768 31.663-81.509 72.733-0.6701 37.1 25.94 65.905 72.87 74.326l-0.4199 23.443c-0.1391 7.5365 5.8595 13.758 13.401 13.909l13.78 0.2276c7.539 0.152 13.758-5.8671 13.899-13.403l0.3793-21.041c22.619-0.5057 39.141-4.0714 52.289-8.4214 6.732-2.2255 10.52-9.3572 8.7806-16.236l-5.1086-20.307c-1.9701-7.8146-10.212-12.24-17.812-9.5091-12.099 4.3245-29.19 8.7502-51.29 8.3709-27.92-0.5057-35.679-12.215-35.499-22.609 0.2404-12.746 17.139-21.218 53.639-31.738 52.13-14.617 74.051-35.76 74.751-74.453 0.6398-35.507-25.11-67.878-76.011-76.78l0.4705-26.225c0.1389-7.5362-5.87-13.758-13.411-13.909l-13.77-0.2276c-7.539-0.1517-13.77 5.8419-13.899 13.378" fill="url(#linearGradient7510)" fill-rule="evenodd"/></g><g clip-path="url(#clipPath7520)"><path d="m1565.7 1579.6c-13.811 0-27.229 1.7804-40.021 5.1112-63.619 16.56-111.94 71.689-117.96 139.33-0.3413 3.7607-0.5411 7.5489-0.612 11.38-0.1695 9.2509 0.4604 18.32 1.821 27.158 4.6709 30.401 17.999 58.022 37.431 80.201 28.438 32.49 69.959 53.311 116.54 54.151 0.9685 0.02 1.9499 0.03 2.9185 0.03 28.952 0 56.151-7.7893 79.571-21.41 23.588-13.709 43.359-33.35 57.218-56.902 13.401-22.778 21.291-49.209 21.8-77.508 0.033-1.8813 0.033-3.7604 0-5.6319-1.3986-83.719-67.878-152.13-151.71-155.76-1.3504-0.051-2.721-0.099-4.0816-0.1188-0.9686-0.02-1.95-0.031-2.9186-0.031zm0.1089 312.08c-0.9281 0-1.8689-0.01-2.8199-0.03-84.7-1.5199-152.13-71.431-150.61-156.14 1.5097-83.76 69.89-150.63 153.33-150.63 0.9306 0 1.8688 0.01 2.8097 0.028 84.71 1.5225 152.14 71.431 150.61 156.13-1.51 83.769-69.88 150.64-153.32 150.64" fill="url(#linearGradient7526)" fill-rule="evenodd"/></g><g clip-path="url(#clipPath7536)"><path d="m1565.7 1584.9c-83.441 0-151.82 66.868-153.33 150.63-1.52 84.71 65.91 154.62 150.61 156.14 0.951 0.02 1.8918 0.03 2.8199 0.03 83.441 0 151.81-66.871 153.32-150.64 1.5299-84.7-65.9-154.61-150.61-156.13-0.9409-0.018-1.8791-0.028-2.8097-0.028zm3.5002 279.95c-0.8019 0-1.5908-0.01-2.3899-0.02-71.691-1.2898-128.76-60.46-127.47-132.15 1.2795-70.902 59.15-127.5 129.76-127.5 0.8016 0 1.6007 0.01 2.3899 0.03 71.701 1.2898 128.77 60.45 127.47 132.15-1.2693 70.9-59.15 127.49-129.76 127.49zm-3.4217 17.92c-0.8802 0-1.7578-0.01-2.6379-0.03-54.851-0.9913-103.74-32.32-127.59-81.769-0.6905-1.4213-0.091-3.1309 1.3402-3.8211 0.3997-0.1897 0.8195-0.2784 1.2393-0.2784h0.051c1.0496 0.018 2.0409 0.6095 2.5316 1.6186 22.91 47.489 69.858 77.581 122.54 78.53 0.8396 0.01 1.6792 0.02 2.5189 0.02 7.5716 0 15.151-0.6094 22.551-1.8207 0.1593-0.028 0.3212-0.038 0.4805-0.038 1.381 0 2.5795 0.9989 2.8097 2.4 0.2506 1.5577-0.8093 3.0297-2.3695 3.2877-7.7009 1.262-15.581 1.9017-23.461 1.9017" fill="url(#linearGradient7542)" fill-rule="evenodd"/></g><g clip-path="url(#clipPath7552)"><path d="m1438.1 1796.9c-0.4198 0-0.8396 0.089-1.2393 0.2784-1.4315 0.6902-2.0307 2.3998-1.3402 3.8211 23.851 49.449 72.741 80.778 127.59 81.769 0.8801 0.02 1.7577 0.03 2.6379 0.03 7.88 0 15.76-0.6397 23.461-1.9017 1.5602-0.258 2.6201-1.73 2.3695-3.2877-0.2302-1.4011-1.4287-2.4-2.8097-2.4-0.1593 0-0.3212 0.01-0.4805 0.038-7.3996 1.2113-14.979 1.8207-22.551 1.8207-0.8397 0-1.6793-0.01-2.5189-0.02-52.681-0.9485-99.629-31.04-122.54-78.53-0.4907-1.0091-1.482-1.6007-2.5316-1.6186h-0.051" fill="url(#linearGradient7558)" fill-rule="evenodd"/></g><g clip-path="url(#clipPath7568)"><path d="m1569.1 1605.2c-70.609 0-128.48 56.598-129.76 127.5-1.2898 71.689 55.779 130.86 127.47 132.15 0.7991 0.01 1.588 0.02 2.3899 0.02 70.609 0 128.49-56.591 129.76-127.49 1.3-71.699-55.769-130.86-127.47-132.15-0.7892-0.02-1.5883-0.03-2.3899-0.03" fill="url(#linearGradient7574)" fill-rule="evenodd"/></g><g clip-path="url(#clipPath7584)"><path d="m1558.1 1638.3-0.2503 14.129c-14.742 0.3211-29.362 3.5305-39.781 7.8701-3.7302 1.5503-5.6801 5.6599-4.6911 9.5698l3.3508 13.221c1.2291 4.8507 6.4287 7.4404 11.079 5.5891 10.331-4.1097 23.062-7.2885 36.721-7.0382 14.18 0.2503 24.67 5.2478 24.501 15.108-0.1619 8.892-8.4317 14.031-28.241 18.962-28.251 7.1898-48.67 19.078-49.11 43.84-0.4096 22.349 15.632 39.71 43.911 44.788l-0.2503 14.119c-0.089 4.5522 3.5303 8.3002 8.0799 8.3809l8.2899 0.152c4.5496 0.078 8.3001-3.5408 8.3786-8.0802l0.2302-12.68c13.631-0.301 23.593-2.4505 31.511-5.0808 4.0615-1.3402 6.3402-5.6497 5.3008-9.7895l-3.0804-12.23c-1.1912-4.7115-6.1606-7.3721-10.74-5.7308-7.2885 2.5999-17.589 5.2704-30.899 5.03-16.83-0.2982-21.512-7.3593-21.4-13.611 0.1389-7.6881 10.328-12.789 32.32-19.129 31.42-8.811 44.629-21.55 45.049-44.869 0.3917-21.39-15.128-40.901-45.81-46.262l0.2909-15.809c0.078-4.5496-3.5405-8.3001-8.0802-8.3783l-8.3001-0.152c-4.5394-0.078-8.2999 3.5408-8.3784 8.0802" fill="url(#linearGradient7590)" fill-rule="evenodd"/></g><g clip-path="url(#clipPath7600)"><path d="m1601.3 2203.8c-114.19 0-207.77 91.518-209.84 206.16-2.0891 115.94 90.201 211.62 206.13 213.69 1.2821 0.025 2.5719 0.051 3.8617 0.051 114.19 0 207.76-91.523 209.83-206.17 2.0914-115.93-90.188-211.6-206.13-213.69-1.2798-0.03-2.5696-0.041-3.8491-0.041zm0.1391 412.92c-1.2393 0-2.4808-0.025-3.7303-0.05-112.07-2.0231-201.29-94.5-199.27-206.58 2.0005-110.83 92.459-199.31 202.86-199.31 1.2393 0 2.4783 0.02 3.7301 0.038 112.07 2.0206 201.29 94.51 199.27 206.59-2.0004 110.83-92.472 199.31-202.86 199.31" fill="url(#linearGradient7606)" fill-rule="evenodd"/></g><g clip-path="url(#clipPath7616)"><path d="m1601.3 2210.8c-110.4 0-200.86 88.478-202.86 199.31-2.0205 112.08 87.202 204.56 199.27 206.58 1.2495 0.025 2.491 0.05 3.7303 0.05 110.39 0 200.86-88.481 202.86-199.31 2.0182-112.08-87.201-204.57-199.27-206.59-1.2518-0.018-2.4908-0.038-3.7301-0.038zm4.6281 370.41c-1.0497 0-2.0991 0-3.1487-0.025-94.862-1.7198-170.37-79.994-168.66-174.85 1.6892-93.8 78.259-168.69 171.69-168.69 1.0497 0 2.0991 0.01 3.1587 0.028 94.862 1.7121 170.37 80.002 168.66 174.85-1.6894 93.812-78.259 168.69-171.7 168.69zm-4.5397 25.088c-1.1582 0-2.3292 0-3.49-0.025-73.1-1.315-138.26-43.094-170.04-108.98-1.2393-2.5617-0.1695-5.6597 2.41-6.9015 0.7209-0.349 1.4922-0.5083 2.2507-0.5083h0.081c1.889 0.03 3.6998 1.1104 4.5697 2.9208 30.08 62.359 91.738 101.89 160.91 103.13 1.1075 0.026 2.2076 0.026 3.3179 0.026 9.9312 0 19.87-0.8093 29.612-2.3775 0.2982-0.076 0.589-0.076 0.8875-0.076 2.4809 0 4.6307 1.8207 5.0505 4.3246 0.46 2.8324-1.4593 5.4879-4.269 5.9428-10.29 1.6946-20.791 2.5291-31.291 2.5291" fill="url(#linearGradient7622)" fill-rule="evenodd"/></g><g clip-path="url(#clipPath7632)"><path d="m1432.5 2489.9c-0.7585 0-1.5298 0.1593-2.2507 0.5083-2.5795 1.2418-3.6493 4.3398-2.41 6.9015 31.782 65.887 96.94 107.67 170.04 108.98 1.1608 0.025 2.3318 0.025 3.49 0.025 10.5 0 21.001-0.8345 31.291-2.5291 2.8097-0.4549 4.729-3.1104 4.269-5.9428-0.4198-2.5039-2.5696-4.3246-5.0505-4.3246-0.2985 0-0.5893 0-0.8875 0.076-9.7419 1.5682-19.681 2.3775-29.612 2.3775-1.1103 0-2.2104 0-3.3179-0.026-69.172-1.239-130.83-40.767-160.91-103.13-0.8699-1.8104-2.6807-2.8904-4.5697-2.9208h-0.081" fill="url(#linearGradient7638)" fill-rule="evenodd"/></g><g clip-path="url(#clipPath7648)"><path d="m1605.8 2237.7c-93.43 0-170 74.89-171.69 168.69-1.7095 94.859 73.798 173.13 168.66 174.85 1.0496 0.025 2.099 0.025 3.1487 0.025 93.44 0 170.01-74.878 171.7-168.69 1.7121-94.849-73.798-173.14-168.66-174.85-1.0596-0.018-2.109-0.028-3.1587-0.028" fill="url(#linearGradient7654)" fill-rule="evenodd"/></g><g clip-path="url(#clipPath7664)"><path d="m1591.3 2281.4-0.3413 18.682c-19.491 0.4275-38.84 4.6786-52.64 10.43-4.919 2.0486-7.511 7.4883-6.2011 12.66l4.4309 17.488c1.631 6.4108 8.5201 9.8402 14.66 7.3896 13.682-5.4397 30.53-9.6378 48.599-9.3192 18.76 0.3413 32.641 6.9597 32.401 19.992-0.2101 11.77-11.15 18.57-37.35 25.1-37.391 9.4989-64.39 25.239-64.989 57.989-0.5312 29.579 20.69 52.55 58.11 59.261l-0.3413 18.689c-0.1088 6.0188 4.6811 10.981 10.69 11.082l10.981 0.2021c6.0089 0.1012 10.971-4.676 11.08-10.695l0.3109-16.77c18.029-0.3994 31.21-3.2496 41.69-6.7195 5.3688-1.7801 8.3886-7.4704 7.0002-12.951l-4.0717-16.18c-1.5704-6.239-8.1383-9.7594-14.2-7.5895-9.6505 3.4495-23.279 6.9801-40.898 6.6589-22.26-0.3997-28.451-9.7291-28.299-17.999 0.1794-10.182 13.659-16.929 42.757-25.32 41.571-11.651 59.051-28.519 59.61-59.36 0.5108-28.309-20.019-54.13-60.609-61.221l0.3693-20.909c0.1111-6.0191-4.6687-10.978-10.69-11.09l-10.978-0.1897c-6.0114-0.1111-10.971 4.6712-11.08 10.69" fill="url(#linearGradient7670)" fill-rule="evenodd"/></g></g></g></svg>
